G04 #@! TF.FileFunction,Legend,Bot*
%FSLAX46Y46*%
G04 Gerber Fmt 4.6, Leading zero omitted, Abs format (unit mm)*
G04 Created by KiCad (PCBNEW 4.0.7) date Wednesday, June 13, 2018 'PMt' 01:49:24 PM*
%MOMM*%
%LPD*%
G01*
G04 APERTURE LIST*
%ADD10C,0.100000*%
%ADD11C,0.150000*%
%ADD12C,0.200000*%
%ADD13C,0.187500*%
%ADD14C,0.120000*%
G04 APERTURE END LIST*
D10*
D11*
X7214285Y-7738857D02*
X7128571Y-7767429D01*
X6985714Y-7767429D01*
X6928571Y-7738857D01*
X6900000Y-7710286D01*
X6871428Y-7653143D01*
X6871428Y-7596000D01*
X6900000Y-7538857D01*
X6928571Y-7510286D01*
X6985714Y-7481714D01*
X7100000Y-7453143D01*
X7157142Y-7424571D01*
X7185714Y-7396000D01*
X7214285Y-7338857D01*
X7214285Y-7281714D01*
X7185714Y-7224571D01*
X7157142Y-7196000D01*
X7100000Y-7167429D01*
X6957142Y-7167429D01*
X6871428Y-7196000D01*
X6271428Y-7710286D02*
X6299999Y-7738857D01*
X6385713Y-7767429D01*
X6442856Y-7767429D01*
X6528571Y-7738857D01*
X6585713Y-7681714D01*
X6614285Y-7624571D01*
X6642856Y-7510286D01*
X6642856Y-7424571D01*
X6614285Y-7310286D01*
X6585713Y-7253143D01*
X6528571Y-7196000D01*
X6442856Y-7167429D01*
X6385713Y-7167429D01*
X6299999Y-7196000D01*
X6271428Y-7224571D01*
X5728571Y-7767429D02*
X6014285Y-7767429D01*
X6014285Y-7167429D01*
X6457143Y-9113143D02*
X6371429Y-9141714D01*
X6342857Y-9170286D01*
X6314286Y-9227429D01*
X6314286Y-9313143D01*
X6342857Y-9370286D01*
X6371429Y-9398857D01*
X6428571Y-9427429D01*
X6657143Y-9427429D01*
X6657143Y-8827429D01*
X6457143Y-8827429D01*
X6400000Y-8856000D01*
X6371429Y-8884571D01*
X6342857Y-8941714D01*
X6342857Y-8998857D01*
X6371429Y-9056000D01*
X6400000Y-9084571D01*
X6457143Y-9113143D01*
X6657143Y-9113143D01*
X9642857Y-9256000D02*
X9357143Y-9256000D01*
X9700000Y-9427429D02*
X9500000Y-8827429D01*
X9300000Y-9427429D01*
X10228571Y-7738857D02*
X10142857Y-7767429D01*
X10000000Y-7767429D01*
X9942857Y-7738857D01*
X9914286Y-7710286D01*
X9885714Y-7653143D01*
X9885714Y-7596000D01*
X9914286Y-7538857D01*
X9942857Y-7510286D01*
X10000000Y-7481714D01*
X10114286Y-7453143D01*
X10171428Y-7424571D01*
X10200000Y-7396000D01*
X10228571Y-7338857D01*
X10228571Y-7281714D01*
X10200000Y-7224571D01*
X10171428Y-7196000D01*
X10114286Y-7167429D01*
X9971428Y-7167429D01*
X9885714Y-7196000D01*
X9628571Y-7767429D02*
X9628571Y-7167429D01*
X9485714Y-7167429D01*
X9399999Y-7196000D01*
X9342857Y-7253143D01*
X9314285Y-7310286D01*
X9285714Y-7424571D01*
X9285714Y-7510286D01*
X9314285Y-7624571D01*
X9342857Y-7681714D01*
X9399999Y-7738857D01*
X9485714Y-7767429D01*
X9628571Y-7767429D01*
X9057142Y-7596000D02*
X8771428Y-7596000D01*
X9114285Y-7767429D02*
X8914285Y-7167429D01*
X8714285Y-7767429D01*
X10499999Y-5930000D02*
X10214285Y-5930000D01*
X10557142Y-6101429D02*
X10357142Y-5501429D01*
X10157142Y-6101429D01*
X9842856Y-5501429D02*
X9728570Y-5501429D01*
X9671428Y-5530000D01*
X9614285Y-5587143D01*
X9585713Y-5701429D01*
X9585713Y-5901429D01*
X9614285Y-6015714D01*
X9671428Y-6072857D01*
X9728570Y-6101429D01*
X9842856Y-6101429D01*
X9899999Y-6072857D01*
X9957142Y-6015714D01*
X9985713Y-5901429D01*
X9985713Y-5701429D01*
X9957142Y-5587143D01*
X9899999Y-5530000D01*
X9842856Y-5501429D01*
X9328571Y-5501429D02*
X9328571Y-5987143D01*
X9299999Y-6044286D01*
X9271428Y-6072857D01*
X9214285Y-6101429D01*
X9099999Y-6101429D01*
X9042857Y-6072857D01*
X9014285Y-6044286D01*
X8985714Y-5987143D01*
X8985714Y-5501429D01*
X8785714Y-5501429D02*
X8442857Y-5501429D01*
X8614286Y-6101429D02*
X8614286Y-5501429D01*
X13385715Y-8827429D02*
X13014286Y-8827429D01*
X13214286Y-9056000D01*
X13128572Y-9056000D01*
X13071429Y-9084571D01*
X13042858Y-9113143D01*
X13014286Y-9170286D01*
X13014286Y-9313143D01*
X13042858Y-9370286D01*
X13071429Y-9398857D01*
X13128572Y-9427429D01*
X13300000Y-9427429D01*
X13357143Y-9398857D01*
X13385715Y-9370286D01*
X12757143Y-9370286D02*
X12728571Y-9398857D01*
X12757143Y-9427429D01*
X12785714Y-9398857D01*
X12757143Y-9370286D01*
X12757143Y-9427429D01*
X12528572Y-8827429D02*
X12157143Y-8827429D01*
X12357143Y-9056000D01*
X12271429Y-9056000D01*
X12214286Y-9084571D01*
X12185715Y-9113143D01*
X12157143Y-9170286D01*
X12157143Y-9313143D01*
X12185715Y-9370286D01*
X12214286Y-9398857D01*
X12271429Y-9427429D01*
X12442857Y-9427429D01*
X12500000Y-9398857D01*
X12528572Y-9370286D01*
X11985714Y-8827429D02*
X11785714Y-9427429D01*
X11585714Y-8827429D01*
X13385715Y-7167429D02*
X13014286Y-7167429D01*
X13214286Y-7396000D01*
X13128572Y-7396000D01*
X13071429Y-7424571D01*
X13042858Y-7453143D01*
X13014286Y-7510286D01*
X13014286Y-7653143D01*
X13042858Y-7710286D01*
X13071429Y-7738857D01*
X13128572Y-7767429D01*
X13300000Y-7767429D01*
X13357143Y-7738857D01*
X13385715Y-7710286D01*
X12757143Y-7710286D02*
X12728571Y-7738857D01*
X12757143Y-7767429D01*
X12785714Y-7738857D01*
X12757143Y-7710286D01*
X12757143Y-7767429D01*
X12528572Y-7167429D02*
X12157143Y-7167429D01*
X12357143Y-7396000D01*
X12271429Y-7396000D01*
X12214286Y-7424571D01*
X12185715Y-7453143D01*
X12157143Y-7510286D01*
X12157143Y-7653143D01*
X12185715Y-7710286D01*
X12214286Y-7738857D01*
X12271429Y-7767429D01*
X12442857Y-7767429D01*
X12500000Y-7738857D01*
X12528572Y-7710286D01*
X11985714Y-7167429D02*
X11785714Y-7767429D01*
X11585714Y-7167429D01*
X13385715Y-5501429D02*
X13014286Y-5501429D01*
X13214286Y-5730000D01*
X13128572Y-5730000D01*
X13071429Y-5758571D01*
X13042858Y-5787143D01*
X13014286Y-5844286D01*
X13014286Y-5987143D01*
X13042858Y-6044286D01*
X13071429Y-6072857D01*
X13128572Y-6101429D01*
X13300000Y-6101429D01*
X13357143Y-6072857D01*
X13385715Y-6044286D01*
X12757143Y-6044286D02*
X12728571Y-6072857D01*
X12757143Y-6101429D01*
X12785714Y-6072857D01*
X12757143Y-6044286D01*
X12757143Y-6101429D01*
X12528572Y-5501429D02*
X12157143Y-5501429D01*
X12357143Y-5730000D01*
X12271429Y-5730000D01*
X12214286Y-5758571D01*
X12185715Y-5787143D01*
X12157143Y-5844286D01*
X12157143Y-5987143D01*
X12185715Y-6044286D01*
X12214286Y-6072857D01*
X12271429Y-6101429D01*
X12442857Y-6101429D01*
X12500000Y-6072857D01*
X12528572Y-6044286D01*
X11985714Y-5501429D02*
X11785714Y-6101429D01*
X11585714Y-5501429D01*
X15957142Y-8856000D02*
X16014285Y-8827429D01*
X16099999Y-8827429D01*
X16185714Y-8856000D01*
X16242856Y-8913143D01*
X16271428Y-8970286D01*
X16299999Y-9084571D01*
X16299999Y-9170286D01*
X16271428Y-9284571D01*
X16242856Y-9341714D01*
X16185714Y-9398857D01*
X16099999Y-9427429D01*
X16042856Y-9427429D01*
X15957142Y-9398857D01*
X15928571Y-9370286D01*
X15928571Y-9170286D01*
X16042856Y-9170286D01*
X15671428Y-9427429D02*
X15671428Y-8827429D01*
X15328571Y-9427429D01*
X15328571Y-8827429D01*
X15042857Y-9427429D02*
X15042857Y-8827429D01*
X14900000Y-8827429D01*
X14814285Y-8856000D01*
X14757143Y-8913143D01*
X14728571Y-8970286D01*
X14700000Y-9084571D01*
X14700000Y-9170286D01*
X14728571Y-9284571D01*
X14757143Y-9341714D01*
X14814285Y-9398857D01*
X14900000Y-9427429D01*
X15042857Y-9427429D01*
X15957142Y-7196000D02*
X16014285Y-7167429D01*
X16099999Y-7167429D01*
X16185714Y-7196000D01*
X16242856Y-7253143D01*
X16271428Y-7310286D01*
X16299999Y-7424571D01*
X16299999Y-7510286D01*
X16271428Y-7624571D01*
X16242856Y-7681714D01*
X16185714Y-7738857D01*
X16099999Y-7767429D01*
X16042856Y-7767429D01*
X15957142Y-7738857D01*
X15928571Y-7710286D01*
X15928571Y-7510286D01*
X16042856Y-7510286D01*
X15671428Y-7767429D02*
X15671428Y-7167429D01*
X15328571Y-7767429D01*
X15328571Y-7167429D01*
X15042857Y-7767429D02*
X15042857Y-7167429D01*
X14900000Y-7167429D01*
X14814285Y-7196000D01*
X14757143Y-7253143D01*
X14728571Y-7310286D01*
X14700000Y-7424571D01*
X14700000Y-7510286D01*
X14728571Y-7624571D01*
X14757143Y-7681714D01*
X14814285Y-7738857D01*
X14900000Y-7767429D01*
X15042857Y-7767429D01*
X15957142Y-5530000D02*
X16014285Y-5501429D01*
X16099999Y-5501429D01*
X16185714Y-5530000D01*
X16242856Y-5587143D01*
X16271428Y-5644286D01*
X16299999Y-5758571D01*
X16299999Y-5844286D01*
X16271428Y-5958571D01*
X16242856Y-6015714D01*
X16185714Y-6072857D01*
X16099999Y-6101429D01*
X16042856Y-6101429D01*
X15957142Y-6072857D01*
X15928571Y-6044286D01*
X15928571Y-5844286D01*
X16042856Y-5844286D01*
X15671428Y-6101429D02*
X15671428Y-5501429D01*
X15328571Y-6101429D01*
X15328571Y-5501429D01*
X15042857Y-6101429D02*
X15042857Y-5501429D01*
X14900000Y-5501429D01*
X14814285Y-5530000D01*
X14757143Y-5587143D01*
X14728571Y-5644286D01*
X14700000Y-5758571D01*
X14700000Y-5844286D01*
X14728571Y-5958571D01*
X14757143Y-6015714D01*
X14814285Y-6072857D01*
X14900000Y-6101429D01*
X15042857Y-6101429D01*
D12*
X5000000Y-8326000D02*
X17000000Y-8326000D01*
X5000000Y-6666000D02*
X17000000Y-6666000D01*
X14000000Y-5000000D02*
X14000000Y-10000000D01*
X11000000Y-5000000D02*
X11000000Y-10000000D01*
X8000000Y-5000000D02*
X8000000Y-10000000D01*
X5000000Y-5000000D02*
X17000000Y-5000000D01*
X17000000Y-5000000D02*
X17000000Y-10000000D01*
X5000000Y-10000000D02*
X17000000Y-10000000D01*
X5000000Y-5000000D02*
X5000000Y-10000000D01*
D13*
X1521429Y-27046429D02*
X1414286Y-27082143D01*
X1378571Y-27117857D01*
X1342857Y-27189286D01*
X1342857Y-27296429D01*
X1378571Y-27367857D01*
X1414286Y-27403571D01*
X1485714Y-27439286D01*
X1771429Y-27439286D01*
X1771429Y-26689286D01*
X1521429Y-26689286D01*
X1450000Y-26725000D01*
X1414286Y-26760714D01*
X1378571Y-26832143D01*
X1378571Y-26903571D01*
X1414286Y-26975000D01*
X1450000Y-27010714D01*
X1521429Y-27046429D01*
X1771429Y-27046429D01*
X4353571Y-27225000D02*
X3996428Y-27225000D01*
X4424999Y-27439286D02*
X4174999Y-26689286D01*
X3924999Y-27439286D01*
X2467857Y-24863571D02*
X2360714Y-24899286D01*
X2182143Y-24899286D01*
X2110714Y-24863571D01*
X2075000Y-24827857D01*
X2039285Y-24756429D01*
X2039285Y-24685000D01*
X2075000Y-24613571D01*
X2110714Y-24577857D01*
X2182143Y-24542143D01*
X2325000Y-24506429D01*
X2396428Y-24470714D01*
X2432143Y-24435000D01*
X2467857Y-24363571D01*
X2467857Y-24292143D01*
X2432143Y-24220714D01*
X2396428Y-24185000D01*
X2325000Y-24149286D01*
X2146428Y-24149286D01*
X2039285Y-24185000D01*
X1289285Y-24827857D02*
X1324999Y-24863571D01*
X1432142Y-24899286D01*
X1503571Y-24899286D01*
X1610714Y-24863571D01*
X1682142Y-24792143D01*
X1717857Y-24720714D01*
X1753571Y-24577857D01*
X1753571Y-24470714D01*
X1717857Y-24327857D01*
X1682142Y-24256429D01*
X1610714Y-24185000D01*
X1503571Y-24149286D01*
X1432142Y-24149286D01*
X1324999Y-24185000D01*
X1289285Y-24220714D01*
X610714Y-24899286D02*
X967857Y-24899286D01*
X967857Y-24149286D01*
X5085714Y-24863571D02*
X4978571Y-24899286D01*
X4800000Y-24899286D01*
X4728571Y-24863571D01*
X4692857Y-24827857D01*
X4657142Y-24756429D01*
X4657142Y-24685000D01*
X4692857Y-24613571D01*
X4728571Y-24577857D01*
X4800000Y-24542143D01*
X4942857Y-24506429D01*
X5014285Y-24470714D01*
X5050000Y-24435000D01*
X5085714Y-24363571D01*
X5085714Y-24292143D01*
X5050000Y-24220714D01*
X5014285Y-24185000D01*
X4942857Y-24149286D01*
X4764285Y-24149286D01*
X4657142Y-24185000D01*
X4335714Y-24899286D02*
X4335714Y-24149286D01*
X4157142Y-24149286D01*
X4049999Y-24185000D01*
X3978571Y-24256429D01*
X3942856Y-24327857D01*
X3907142Y-24470714D01*
X3907142Y-24577857D01*
X3942856Y-24720714D01*
X3978571Y-24792143D01*
X4049999Y-24863571D01*
X4157142Y-24899286D01*
X4335714Y-24899286D01*
X3621428Y-24685000D02*
X3264285Y-24685000D01*
X3692856Y-24899286D02*
X3442856Y-24149286D01*
X3192856Y-24899286D01*
X7900000Y-22145000D02*
X7542857Y-22145000D01*
X7971428Y-22359286D02*
X7721428Y-21609286D01*
X7471428Y-22359286D01*
X7078571Y-21609286D02*
X6935714Y-21609286D01*
X6864286Y-21645000D01*
X6792857Y-21716429D01*
X6757143Y-21859286D01*
X6757143Y-22109286D01*
X6792857Y-22252143D01*
X6864286Y-22323571D01*
X6935714Y-22359286D01*
X7078571Y-22359286D01*
X7150000Y-22323571D01*
X7221429Y-22252143D01*
X7257143Y-22109286D01*
X7257143Y-21859286D01*
X7221429Y-21716429D01*
X7150000Y-21645000D01*
X7078571Y-21609286D01*
X6435715Y-21609286D02*
X6435715Y-22216429D01*
X6400000Y-22287857D01*
X6364286Y-22323571D01*
X6292857Y-22359286D01*
X6150000Y-22359286D01*
X6078572Y-22323571D01*
X6042857Y-22287857D01*
X6007143Y-22216429D01*
X6007143Y-21609286D01*
X5757143Y-21609286D02*
X5328572Y-21609286D01*
X5542858Y-22359286D02*
X5542858Y-21609286D01*
X13377143Y-19289286D02*
X12912857Y-19289286D01*
X13162857Y-19575000D01*
X13055715Y-19575000D01*
X12984286Y-19610714D01*
X12948572Y-19646429D01*
X12912857Y-19717857D01*
X12912857Y-19896429D01*
X12948572Y-19967857D01*
X12984286Y-20003571D01*
X13055715Y-20039286D01*
X13270000Y-20039286D01*
X13341429Y-20003571D01*
X13377143Y-19967857D01*
X12591429Y-19967857D02*
X12555714Y-20003571D01*
X12591429Y-20039286D01*
X12627143Y-20003571D01*
X12591429Y-19967857D01*
X12591429Y-20039286D01*
X12305714Y-19289286D02*
X11841428Y-19289286D01*
X12091428Y-19575000D01*
X11984286Y-19575000D01*
X11912857Y-19610714D01*
X11877143Y-19646429D01*
X11841428Y-19717857D01*
X11841428Y-19896429D01*
X11877143Y-19967857D01*
X11912857Y-20003571D01*
X11984286Y-20039286D01*
X12198571Y-20039286D01*
X12270000Y-20003571D01*
X12305714Y-19967857D01*
X11627142Y-19289286D02*
X11377142Y-20039286D01*
X11127142Y-19289286D01*
X15381428Y-19325000D02*
X15452857Y-19289286D01*
X15560000Y-19289286D01*
X15667143Y-19325000D01*
X15738571Y-19396429D01*
X15774286Y-19467857D01*
X15810000Y-19610714D01*
X15810000Y-19717857D01*
X15774286Y-19860714D01*
X15738571Y-19932143D01*
X15667143Y-20003571D01*
X15560000Y-20039286D01*
X15488571Y-20039286D01*
X15381428Y-20003571D01*
X15345714Y-19967857D01*
X15345714Y-19717857D01*
X15488571Y-19717857D01*
X15024286Y-20039286D02*
X15024286Y-19289286D01*
X14595714Y-20039286D01*
X14595714Y-19289286D01*
X14238572Y-20039286D02*
X14238572Y-19289286D01*
X14060000Y-19289286D01*
X13952857Y-19325000D01*
X13881429Y-19396429D01*
X13845714Y-19467857D01*
X13810000Y-19610714D01*
X13810000Y-19717857D01*
X13845714Y-19860714D01*
X13881429Y-19932143D01*
X13952857Y-20003571D01*
X14060000Y-20039286D01*
X14238572Y-20039286D01*
D14*
X8400000Y-23350000D02*
X8400000Y-20690000D01*
X13540000Y-23350000D02*
X8400000Y-23350000D01*
X13540000Y-20690000D02*
X8400000Y-20690000D01*
X13540000Y-23350000D02*
X13540000Y-20690000D01*
X14810000Y-23350000D02*
X16140000Y-23350000D01*
X16140000Y-23350000D02*
X16140000Y-22020000D01*
X5860000Y-25890000D02*
X5860000Y-23230000D01*
X13540000Y-25890000D02*
X5860000Y-25890000D01*
X13540000Y-23230000D02*
X5860000Y-23230000D01*
X13540000Y-25890000D02*
X13540000Y-23230000D01*
X14810000Y-25890000D02*
X16140000Y-25890000D01*
X16140000Y-25890000D02*
X16140000Y-24560000D01*
X5860000Y-28430000D02*
X5860000Y-25770000D01*
X13540000Y-28430000D02*
X5860000Y-28430000D01*
X13540000Y-25770000D02*
X5860000Y-25770000D01*
X13540000Y-28430000D02*
X13540000Y-25770000D01*
X14810000Y-28430000D02*
X16140000Y-28430000D01*
X16140000Y-28430000D02*
X16140000Y-27100000D01*
D10*
X17273333Y-21800952D02*
X17273333Y-22086667D01*
X17292381Y-22143810D01*
X17330476Y-22181905D01*
X17387619Y-22200952D01*
X17425714Y-22200952D01*
X16873333Y-22200952D02*
X17101905Y-22200952D01*
X16987619Y-22200952D02*
X16987619Y-21800952D01*
X17025714Y-21858095D01*
X17063809Y-21896190D01*
X17101905Y-21915238D01*
X17273333Y-24340952D02*
X17273333Y-24626667D01*
X17292381Y-24683810D01*
X17330476Y-24721905D01*
X17387619Y-24740952D01*
X17425714Y-24740952D01*
X17101905Y-24379048D02*
X17082857Y-24360000D01*
X17044762Y-24340952D01*
X16949524Y-24340952D01*
X16911428Y-24360000D01*
X16892381Y-24379048D01*
X16873333Y-24417143D01*
X16873333Y-24455238D01*
X16892381Y-24512381D01*
X17120952Y-24740952D01*
X16873333Y-24740952D01*
X17273333Y-26880952D02*
X17273333Y-27166667D01*
X17292381Y-27223810D01*
X17330476Y-27261905D01*
X17387619Y-27280952D01*
X17425714Y-27280952D01*
X17120952Y-26880952D02*
X16873333Y-26880952D01*
X17006666Y-27033333D01*
X16949524Y-27033333D01*
X16911428Y-27052381D01*
X16892381Y-27071429D01*
X16873333Y-27109524D01*
X16873333Y-27204762D01*
X16892381Y-27242857D01*
X16911428Y-27261905D01*
X16949524Y-27280952D01*
X17063809Y-27280952D01*
X17101905Y-27261905D01*
X17120952Y-27242857D01*
M02*
