G04 #@! TF.FileFunction,Copper,L1,Top,Signal*
%FSLAX46Y46*%
G04 Gerber Fmt 4.6, Leading zero omitted, Abs format (unit mm)*
G04 Created by KiCad (PCBNEW 4.0.7) date Wednesday, June 13, 2018 'PMt' 01:49:24 PM*
%MOMM*%
%LPD*%
G01*
G04 APERTURE LIST*
%ADD10C,0.100000*%
%ADD11R,0.250000X0.400000*%
%ADD12R,0.400000X0.250000*%
%ADD13R,4.650000X4.650000*%
%ADD14R,1.000000X1.250000*%
%ADD15R,0.800000X0.750000*%
%ADD16R,1.300000X0.700000*%
%ADD17R,1.700000X1.700000*%
%ADD18O,1.700000X1.700000*%
%ADD19C,0.400000*%
%ADD20C,0.175000*%
%ADD21C,0.025400*%
G04 APERTURE END LIST*
D10*
D11*
X8675000Y-4050000D03*
X9325000Y-4050000D03*
X9975000Y-4050000D03*
X10625000Y-4050000D03*
X11275000Y-4050000D03*
X11925000Y-4050000D03*
X12575000Y-4050000D03*
X13225000Y-4050000D03*
D12*
X13625000Y-4450000D03*
X13625000Y-5100000D03*
X13625000Y-5750000D03*
X13625000Y-6400000D03*
X13625000Y-7050000D03*
X13625000Y-7700000D03*
X13625000Y-8350000D03*
X13625000Y-9000000D03*
D11*
X13225000Y-9400000D03*
X12575000Y-9400000D03*
X11925000Y-9400000D03*
X11275000Y-9400000D03*
X10625000Y-9400000D03*
X9975000Y-9400000D03*
X9325000Y-9400000D03*
X8675000Y-9400000D03*
D12*
X8275000Y-9000000D03*
X8275000Y-8350000D03*
X8275000Y-7700000D03*
X8275000Y-7050000D03*
X8275000Y-6400000D03*
X8275000Y-5750000D03*
X8275000Y-5100000D03*
X8275000Y-4450000D03*
D13*
X10950000Y-6725000D03*
D14*
X12675000Y-19325000D03*
X14675000Y-19325000D03*
D15*
X14425000Y-17650000D03*
X12925000Y-17650000D03*
D16*
X10100000Y-2825000D03*
X10100000Y-925000D03*
X12050000Y-2825000D03*
X12050000Y-925000D03*
X14000000Y-2825000D03*
X14000000Y-925000D03*
D17*
X14810000Y-22020000D03*
D18*
X12270000Y-22020000D03*
X9730000Y-22020000D03*
D17*
X14810000Y-24560000D03*
D18*
X12270000Y-24560000D03*
X9730000Y-24560000D03*
X7190000Y-24560000D03*
D17*
X14810000Y-27100000D03*
D18*
X12270000Y-27100000D03*
X9730000Y-27100000D03*
X7190000Y-27100000D03*
D19*
X14675000Y-19325000D03*
X10950000Y-6725000D03*
X15275000Y-11650000D03*
X13750000Y-14200000D03*
D20*
X14675000Y-19325000D02*
X14675000Y-21885000D01*
X14675000Y-21885000D02*
X14810000Y-22020000D01*
X14425000Y-17650000D02*
X14425000Y-19075000D01*
X14425000Y-19075000D02*
X14675000Y-19325000D01*
X8275000Y-5750000D02*
X8275000Y-6400000D01*
X8275000Y-6400000D02*
X8275000Y-7050000D01*
X8275000Y-7050000D02*
X8275000Y-6400000D01*
X8275000Y-6400000D02*
X8600000Y-6725000D01*
X8600000Y-6725000D02*
X10950000Y-6725000D01*
X7077002Y-20025000D02*
X7077002Y-20352002D01*
X7637500Y-3037500D02*
X7077002Y-3597998D01*
X7077002Y-3597998D02*
X7077002Y-20025000D01*
X8512500Y-3037500D02*
X7637500Y-3037500D01*
X8745000Y-22020000D02*
X9730000Y-22020000D01*
X7077002Y-20352002D02*
X8745000Y-22020000D01*
X9975000Y-4050000D02*
X9975000Y-3625000D01*
X9000000Y-3525000D02*
X8512500Y-3037500D01*
X8512500Y-3037500D02*
X8475000Y-3000000D01*
X9875000Y-3525000D02*
X9000000Y-3525000D01*
X9975000Y-3625000D02*
X9875000Y-3525000D01*
X10100000Y-2825000D02*
X10175000Y-2825000D01*
X10175000Y-2825000D02*
X10625000Y-3275000D01*
X10625000Y-3275000D02*
X10625000Y-4050000D01*
X6775000Y-20050000D02*
X6775000Y-20500000D01*
X8025000Y-2200000D02*
X6775000Y-3450000D01*
X6775000Y-3450000D02*
X6775000Y-20050000D01*
X8675000Y-2200000D02*
X8025000Y-2200000D01*
X8075000Y-23250000D02*
X9385000Y-24560000D01*
X8075000Y-21800000D02*
X8075000Y-23250000D01*
X6775000Y-20500000D02*
X8075000Y-21800000D01*
X9385000Y-24560000D02*
X9730000Y-24560000D01*
X12050000Y-2825000D02*
X11425000Y-2200000D01*
X9100000Y-2200000D02*
X8675000Y-2200000D01*
X8675000Y-2200000D02*
X8625000Y-2200000D01*
X11425000Y-2200000D02*
X9100000Y-2200000D01*
X12050000Y-2825000D02*
X12575000Y-3350000D01*
X12575000Y-3350000D02*
X12575000Y-4050000D01*
X6472998Y-20000000D02*
X6472998Y-23842998D01*
X7899906Y-1897998D02*
X6472998Y-3324906D01*
X6472998Y-3324906D02*
X6472998Y-20000000D01*
X14000000Y-2550000D02*
X13347998Y-1897998D01*
X13347998Y-1897998D02*
X8675000Y-1897998D01*
X8675000Y-1897998D02*
X7899906Y-1897998D01*
X6472998Y-23842998D02*
X7190000Y-24560000D01*
X14000000Y-2825000D02*
X14000000Y-2550000D01*
X14000000Y-2825000D02*
X13725000Y-2825000D01*
X13725000Y-2825000D02*
X13225000Y-3325000D01*
X13225000Y-3325000D02*
X13225000Y-4050000D01*
X15275000Y-11650000D02*
X15152002Y-11527002D01*
X15152002Y-11527002D02*
X15152002Y-10500000D01*
X13625000Y-8350000D02*
X13850000Y-8350000D01*
X15152002Y-9424906D02*
X15152002Y-10500000D01*
X15152002Y-10500000D02*
X15152002Y-10475000D01*
X14402096Y-8675000D02*
X15152002Y-9424906D01*
X14175000Y-8675000D02*
X14402096Y-8675000D01*
X13850000Y-8350000D02*
X14175000Y-8675000D01*
X13750000Y-14200000D02*
X14850000Y-13100000D01*
X14850000Y-13100000D02*
X14850000Y-10500000D01*
X13625000Y-9000000D02*
X14300000Y-9000000D01*
X14850000Y-9550000D02*
X14850000Y-10500000D01*
X14300000Y-9000000D02*
X14850000Y-9550000D01*
D21*
G36*
X21887300Y-28887300D02*
X112700Y-28887300D01*
X112700Y-27080611D01*
X6200300Y-27080611D01*
X6200300Y-27119389D01*
X6275636Y-27498131D01*
X6490176Y-27819213D01*
X6811258Y-28033753D01*
X7190000Y-28109089D01*
X7568742Y-28033753D01*
X7889824Y-27819213D01*
X8104364Y-27498131D01*
X8179700Y-27119389D01*
X8179700Y-27080611D01*
X8740300Y-27080611D01*
X8740300Y-27119389D01*
X8815636Y-27498131D01*
X9030176Y-27819213D01*
X9351258Y-28033753D01*
X9730000Y-28109089D01*
X10108742Y-28033753D01*
X10429824Y-27819213D01*
X10644364Y-27498131D01*
X10719700Y-27119389D01*
X10719700Y-27080611D01*
X10644364Y-26701869D01*
X10429824Y-26380787D01*
X10234088Y-26250000D01*
X13817564Y-26250000D01*
X13817564Y-27950000D01*
X13827305Y-28001769D01*
X13857901Y-28049316D01*
X13904584Y-28081214D01*
X13960000Y-28092436D01*
X15660000Y-28092436D01*
X15711769Y-28082695D01*
X15759316Y-28052099D01*
X15791214Y-28005416D01*
X15802436Y-27950000D01*
X15802436Y-26250000D01*
X15792695Y-26198231D01*
X15762099Y-26150684D01*
X15715416Y-26118786D01*
X15660000Y-26107564D01*
X13960000Y-26107564D01*
X13908231Y-26117305D01*
X13860684Y-26147901D01*
X13828786Y-26194584D01*
X13817564Y-26250000D01*
X10234088Y-26250000D01*
X10108742Y-26166247D01*
X9730000Y-26090911D01*
X9351258Y-26166247D01*
X9030176Y-26380787D01*
X8815636Y-26701869D01*
X8740300Y-27080611D01*
X8179700Y-27080611D01*
X8104364Y-26701869D01*
X7889824Y-26380787D01*
X7568742Y-26166247D01*
X7190000Y-26090911D01*
X6811258Y-26166247D01*
X6490176Y-26380787D01*
X6275636Y-26701869D01*
X6200300Y-27080611D01*
X112700Y-27080611D01*
X112700Y-24540611D01*
X6200300Y-24540611D01*
X6200300Y-24579389D01*
X6275636Y-24958131D01*
X6490176Y-25279213D01*
X6811258Y-25493753D01*
X7190000Y-25569089D01*
X7568742Y-25493753D01*
X7889824Y-25279213D01*
X8104364Y-24958131D01*
X8179700Y-24579389D01*
X8179700Y-24540611D01*
X8104364Y-24161869D01*
X7889824Y-23840787D01*
X7568742Y-23626247D01*
X7190000Y-23550911D01*
X6811258Y-23626247D01*
X6700198Y-23700455D01*
X6700198Y-20746508D01*
X7847800Y-21894109D01*
X7847800Y-23250000D01*
X7865095Y-23336946D01*
X7914345Y-23410655D01*
X8790737Y-24287046D01*
X8740300Y-24540611D01*
X8740300Y-24579389D01*
X8815636Y-24958131D01*
X9030176Y-25279213D01*
X9351258Y-25493753D01*
X9730000Y-25569089D01*
X10108742Y-25493753D01*
X10429824Y-25279213D01*
X10644364Y-24958131D01*
X10719700Y-24579389D01*
X10719700Y-24540611D01*
X10644364Y-24161869D01*
X10429824Y-23840787D01*
X10234088Y-23710000D01*
X13817564Y-23710000D01*
X13817564Y-25410000D01*
X13827305Y-25461769D01*
X13857901Y-25509316D01*
X13904584Y-25541214D01*
X13960000Y-25552436D01*
X15660000Y-25552436D01*
X15711769Y-25542695D01*
X15759316Y-25512099D01*
X15791214Y-25465416D01*
X15802436Y-25410000D01*
X15802436Y-23710000D01*
X15792695Y-23658231D01*
X15762099Y-23610684D01*
X15715416Y-23578786D01*
X15660000Y-23567564D01*
X13960000Y-23567564D01*
X13908231Y-23577305D01*
X13860684Y-23607901D01*
X13828786Y-23654584D01*
X13817564Y-23710000D01*
X10234088Y-23710000D01*
X10108742Y-23626247D01*
X9730000Y-23550911D01*
X9351258Y-23626247D01*
X9030176Y-23840787D01*
X9012921Y-23866611D01*
X8302200Y-23155890D01*
X8302200Y-21898509D01*
X8584343Y-22180652D01*
X8584345Y-22180655D01*
X8658054Y-22229905D01*
X8745000Y-22247200D01*
X8781636Y-22247200D01*
X8815636Y-22418131D01*
X9030176Y-22739213D01*
X9351258Y-22953753D01*
X9730000Y-23029089D01*
X10108742Y-22953753D01*
X10429824Y-22739213D01*
X10644364Y-22418131D01*
X10719700Y-22039389D01*
X10719700Y-22000611D01*
X10644364Y-21621869D01*
X10429824Y-21300787D01*
X10234088Y-21170000D01*
X13817564Y-21170000D01*
X13817564Y-22870000D01*
X13827305Y-22921769D01*
X13857901Y-22969316D01*
X13904584Y-23001214D01*
X13960000Y-23012436D01*
X15660000Y-23012436D01*
X15711769Y-23002695D01*
X15759316Y-22972099D01*
X15791214Y-22925416D01*
X15802436Y-22870000D01*
X15802436Y-21170000D01*
X15792695Y-21118231D01*
X15762099Y-21070684D01*
X15715416Y-21038786D01*
X15660000Y-21027564D01*
X14902200Y-21027564D01*
X14902200Y-20092436D01*
X15175000Y-20092436D01*
X15226769Y-20082695D01*
X15274316Y-20052099D01*
X15306214Y-20005416D01*
X15317436Y-19950000D01*
X15317436Y-18700000D01*
X15307695Y-18648231D01*
X15277099Y-18600684D01*
X15230416Y-18568786D01*
X15175000Y-18557564D01*
X14652200Y-18557564D01*
X14652200Y-18167436D01*
X14825000Y-18167436D01*
X14876769Y-18157695D01*
X14924316Y-18127099D01*
X14956214Y-18080416D01*
X14967436Y-18025000D01*
X14967436Y-17275000D01*
X14957695Y-17223231D01*
X14927099Y-17175684D01*
X14880416Y-17143786D01*
X14825000Y-17132564D01*
X14025000Y-17132564D01*
X13973231Y-17142305D01*
X13925684Y-17172901D01*
X13893786Y-17219584D01*
X13882564Y-17275000D01*
X13882564Y-18025000D01*
X13892305Y-18076769D01*
X13922901Y-18124316D01*
X13969584Y-18156214D01*
X14025000Y-18167436D01*
X14197800Y-18167436D01*
X14197800Y-18557564D01*
X14175000Y-18557564D01*
X14123231Y-18567305D01*
X14075684Y-18597901D01*
X14043786Y-18644584D01*
X14032564Y-18700000D01*
X14032564Y-19950000D01*
X14042305Y-20001769D01*
X14072901Y-20049316D01*
X14119584Y-20081214D01*
X14175000Y-20092436D01*
X14447800Y-20092436D01*
X14447800Y-21027564D01*
X13960000Y-21027564D01*
X13908231Y-21037305D01*
X13860684Y-21067901D01*
X13828786Y-21114584D01*
X13817564Y-21170000D01*
X10234088Y-21170000D01*
X10108742Y-21086247D01*
X9730000Y-21010911D01*
X9351258Y-21086247D01*
X9030176Y-21300787D01*
X8815636Y-21621869D01*
X8791171Y-21744862D01*
X7304202Y-20257892D01*
X7304202Y-3692108D01*
X7731610Y-3264700D01*
X8418390Y-3264700D01*
X8839345Y-3685655D01*
X8913054Y-3734905D01*
X9000000Y-3752200D01*
X9097747Y-3752200D01*
X9068786Y-3794584D01*
X9057564Y-3850000D01*
X9057564Y-4250000D01*
X9058987Y-4257564D01*
X8940904Y-4257564D01*
X8942436Y-4250000D01*
X8942436Y-3850000D01*
X8932695Y-3798231D01*
X8902099Y-3750684D01*
X8855416Y-3718786D01*
X8800000Y-3707564D01*
X8550000Y-3707564D01*
X8498231Y-3717305D01*
X8450684Y-3747901D01*
X8418786Y-3794584D01*
X8407564Y-3850000D01*
X8407564Y-4182564D01*
X8075000Y-4182564D01*
X8023231Y-4192305D01*
X7975684Y-4222901D01*
X7943786Y-4269584D01*
X7932564Y-4325000D01*
X7932564Y-4575000D01*
X7942305Y-4626769D01*
X7972901Y-4674316D01*
X8019584Y-4706214D01*
X8075000Y-4717436D01*
X8475000Y-4717436D01*
X8482564Y-4716013D01*
X8482564Y-4834096D01*
X8475000Y-4832564D01*
X8075000Y-4832564D01*
X8023231Y-4842305D01*
X7975684Y-4872901D01*
X7943786Y-4919584D01*
X7932564Y-4975000D01*
X7932564Y-5225000D01*
X7942305Y-5276769D01*
X7972901Y-5324316D01*
X8019584Y-5356214D01*
X8075000Y-5367436D01*
X8475000Y-5367436D01*
X8482564Y-5366013D01*
X8482564Y-5484096D01*
X8475000Y-5482564D01*
X8075000Y-5482564D01*
X8023231Y-5492305D01*
X7975684Y-5522901D01*
X7943786Y-5569584D01*
X7932564Y-5625000D01*
X7932564Y-5875000D01*
X7942305Y-5926769D01*
X7972901Y-5974316D01*
X8019584Y-6006214D01*
X8047800Y-6011928D01*
X8047800Y-6137682D01*
X8023231Y-6142305D01*
X7975684Y-6172901D01*
X7943786Y-6219584D01*
X7932564Y-6275000D01*
X7932564Y-6525000D01*
X7942305Y-6576769D01*
X7972901Y-6624316D01*
X8019584Y-6656214D01*
X8047800Y-6661928D01*
X8047800Y-6787682D01*
X8023231Y-6792305D01*
X7975684Y-6822901D01*
X7943786Y-6869584D01*
X7932564Y-6925000D01*
X7932564Y-7175000D01*
X7942305Y-7226769D01*
X7972901Y-7274316D01*
X8019584Y-7306214D01*
X8075000Y-7317436D01*
X8475000Y-7317436D01*
X8482564Y-7316013D01*
X8482564Y-9050000D01*
X8487161Y-9074429D01*
X8450684Y-9097901D01*
X8418786Y-9144584D01*
X8407564Y-9200000D01*
X8407564Y-9600000D01*
X8417305Y-9651769D01*
X8447901Y-9699316D01*
X8494584Y-9731214D01*
X8550000Y-9742436D01*
X8800000Y-9742436D01*
X8851769Y-9732695D01*
X8899316Y-9702099D01*
X8931214Y-9655416D01*
X8942436Y-9600000D01*
X8942436Y-9200000D01*
X8941013Y-9192436D01*
X9059096Y-9192436D01*
X9057564Y-9200000D01*
X9057564Y-9600000D01*
X9067305Y-9651769D01*
X9097901Y-9699316D01*
X9144584Y-9731214D01*
X9200000Y-9742436D01*
X9450000Y-9742436D01*
X9501769Y-9732695D01*
X9549316Y-9702099D01*
X9581214Y-9655416D01*
X9592436Y-9600000D01*
X9592436Y-9200000D01*
X9591013Y-9192436D01*
X9709096Y-9192436D01*
X9707564Y-9200000D01*
X9707564Y-9600000D01*
X9717305Y-9651769D01*
X9747901Y-9699316D01*
X9794584Y-9731214D01*
X9850000Y-9742436D01*
X10100000Y-9742436D01*
X10151769Y-9732695D01*
X10199316Y-9702099D01*
X10231214Y-9655416D01*
X10242436Y-9600000D01*
X10242436Y-9200000D01*
X10241013Y-9192436D01*
X10359096Y-9192436D01*
X10357564Y-9200000D01*
X10357564Y-9600000D01*
X10367305Y-9651769D01*
X10397901Y-9699316D01*
X10444584Y-9731214D01*
X10500000Y-9742436D01*
X10750000Y-9742436D01*
X10801769Y-9732695D01*
X10849316Y-9702099D01*
X10881214Y-9655416D01*
X10892436Y-9600000D01*
X10892436Y-9200000D01*
X10891013Y-9192436D01*
X11009096Y-9192436D01*
X11007564Y-9200000D01*
X11007564Y-9600000D01*
X11017305Y-9651769D01*
X11047901Y-9699316D01*
X11094584Y-9731214D01*
X11150000Y-9742436D01*
X11400000Y-9742436D01*
X11451769Y-9732695D01*
X11499316Y-9702099D01*
X11531214Y-9655416D01*
X11542436Y-9600000D01*
X11542436Y-9200000D01*
X11541013Y-9192436D01*
X11659096Y-9192436D01*
X11657564Y-9200000D01*
X11657564Y-9600000D01*
X11667305Y-9651769D01*
X11697901Y-9699316D01*
X11744584Y-9731214D01*
X11800000Y-9742436D01*
X12050000Y-9742436D01*
X12101769Y-9732695D01*
X12149316Y-9702099D01*
X12181214Y-9655416D01*
X12192436Y-9600000D01*
X12192436Y-9200000D01*
X12191013Y-9192436D01*
X12309096Y-9192436D01*
X12307564Y-9200000D01*
X12307564Y-9600000D01*
X12317305Y-9651769D01*
X12347901Y-9699316D01*
X12394584Y-9731214D01*
X12450000Y-9742436D01*
X12700000Y-9742436D01*
X12751769Y-9732695D01*
X12799316Y-9702099D01*
X12831214Y-9655416D01*
X12842436Y-9600000D01*
X12842436Y-9200000D01*
X12841013Y-9192436D01*
X12959096Y-9192436D01*
X12957564Y-9200000D01*
X12957564Y-9600000D01*
X12967305Y-9651769D01*
X12997901Y-9699316D01*
X13044584Y-9731214D01*
X13100000Y-9742436D01*
X13350000Y-9742436D01*
X13401769Y-9732695D01*
X13449316Y-9702099D01*
X13481214Y-9655416D01*
X13492436Y-9600000D01*
X13492436Y-9267436D01*
X13825000Y-9267436D01*
X13876769Y-9257695D01*
X13924159Y-9227200D01*
X14205890Y-9227200D01*
X14622800Y-9644109D01*
X14622800Y-13005890D01*
X13768374Y-13860316D01*
X13682726Y-13860241D01*
X13557827Y-13911849D01*
X13462184Y-14007324D01*
X13410359Y-14132133D01*
X13410241Y-14267274D01*
X13461849Y-14392173D01*
X13557324Y-14487816D01*
X13682133Y-14539641D01*
X13817274Y-14539759D01*
X13942173Y-14488151D01*
X14037816Y-14392676D01*
X14089641Y-14267867D01*
X14089716Y-14181594D01*
X14996094Y-13275216D01*
X18610059Y-13275216D01*
X18821183Y-13786173D01*
X19211770Y-14177444D01*
X19722359Y-14389458D01*
X20275216Y-14389941D01*
X20786173Y-14178817D01*
X21177444Y-13788230D01*
X21389458Y-13277641D01*
X21389941Y-12724784D01*
X21178817Y-12213827D01*
X20788230Y-11822556D01*
X20277641Y-11610542D01*
X19724784Y-11610059D01*
X19213827Y-11821183D01*
X18822556Y-12211770D01*
X18610542Y-12722359D01*
X18610059Y-13275216D01*
X14996094Y-13275216D01*
X15010655Y-13260655D01*
X15059905Y-13186946D01*
X15062775Y-13172520D01*
X15077201Y-13100000D01*
X15077200Y-13099995D01*
X15077200Y-11932683D01*
X15082324Y-11937816D01*
X15207133Y-11989641D01*
X15342274Y-11989759D01*
X15467173Y-11938151D01*
X15562816Y-11842676D01*
X15614641Y-11717867D01*
X15614759Y-11582726D01*
X15563151Y-11457827D01*
X15467676Y-11362184D01*
X15379202Y-11325447D01*
X15379202Y-9424906D01*
X15361907Y-9337960D01*
X15312657Y-9264251D01*
X15312654Y-9264249D01*
X14562751Y-8514345D01*
X14557228Y-8510655D01*
X14489042Y-8465095D01*
X14402096Y-8447800D01*
X14269109Y-8447800D01*
X14010655Y-8189345D01*
X13981080Y-8169584D01*
X13936946Y-8140095D01*
X13936288Y-8139964D01*
X13927099Y-8125684D01*
X13880416Y-8093786D01*
X13825000Y-8082564D01*
X13425000Y-8082564D01*
X13417436Y-8083987D01*
X13417436Y-7965904D01*
X13425000Y-7967436D01*
X13825000Y-7967436D01*
X13876769Y-7957695D01*
X13924316Y-7927099D01*
X13956214Y-7880416D01*
X13967436Y-7825000D01*
X13967436Y-7575000D01*
X13957695Y-7523231D01*
X13927099Y-7475684D01*
X13880416Y-7443786D01*
X13825000Y-7432564D01*
X13425000Y-7432564D01*
X13417436Y-7433987D01*
X13417436Y-7315904D01*
X13425000Y-7317436D01*
X13825000Y-7317436D01*
X13876769Y-7307695D01*
X13924316Y-7277099D01*
X13956214Y-7230416D01*
X13967436Y-7175000D01*
X13967436Y-6925000D01*
X13957695Y-6873231D01*
X13927099Y-6825684D01*
X13880416Y-6793786D01*
X13825000Y-6782564D01*
X13425000Y-6782564D01*
X13417436Y-6783987D01*
X13417436Y-6665904D01*
X13425000Y-6667436D01*
X13825000Y-6667436D01*
X13876769Y-6657695D01*
X13924316Y-6627099D01*
X13956214Y-6580416D01*
X13967436Y-6525000D01*
X13967436Y-6275000D01*
X13957695Y-6223231D01*
X13927099Y-6175684D01*
X13880416Y-6143786D01*
X13825000Y-6132564D01*
X13425000Y-6132564D01*
X13417436Y-6133987D01*
X13417436Y-6015904D01*
X13425000Y-6017436D01*
X13825000Y-6017436D01*
X13876769Y-6007695D01*
X13924316Y-5977099D01*
X13956214Y-5930416D01*
X13967436Y-5875000D01*
X13967436Y-5625000D01*
X13957695Y-5573231D01*
X13927099Y-5525684D01*
X13880416Y-5493786D01*
X13825000Y-5482564D01*
X13425000Y-5482564D01*
X13417436Y-5483987D01*
X13417436Y-5365904D01*
X13425000Y-5367436D01*
X13825000Y-5367436D01*
X13876769Y-5357695D01*
X13924316Y-5327099D01*
X13956214Y-5280416D01*
X13967436Y-5225000D01*
X13967436Y-4975000D01*
X13957695Y-4923231D01*
X13927099Y-4875684D01*
X13880416Y-4843786D01*
X13825000Y-4832564D01*
X13425000Y-4832564D01*
X13417436Y-4833987D01*
X13417436Y-4715904D01*
X13425000Y-4717436D01*
X13825000Y-4717436D01*
X13876769Y-4707695D01*
X13924316Y-4677099D01*
X13956214Y-4630416D01*
X13967436Y-4575000D01*
X13967436Y-4325000D01*
X13957695Y-4273231D01*
X13927099Y-4225684D01*
X13880416Y-4193786D01*
X13825000Y-4182564D01*
X13492436Y-4182564D01*
X13492436Y-3850000D01*
X13482695Y-3798231D01*
X13452200Y-3750841D01*
X13452200Y-3419110D01*
X13553874Y-3317436D01*
X14650000Y-3317436D01*
X14701769Y-3307695D01*
X14749316Y-3277099D01*
X14781214Y-3230416D01*
X14792436Y-3175000D01*
X14792436Y-2475000D01*
X14782695Y-2423231D01*
X14752099Y-2375684D01*
X14705416Y-2343786D01*
X14650000Y-2332564D01*
X14103874Y-2332564D01*
X14046526Y-2275216D01*
X18610059Y-2275216D01*
X18821183Y-2786173D01*
X19211770Y-3177444D01*
X19722359Y-3389458D01*
X20275216Y-3389941D01*
X20786173Y-3178817D01*
X21177444Y-2788230D01*
X21389458Y-2277641D01*
X21389941Y-1724784D01*
X21178817Y-1213827D01*
X20788230Y-822556D01*
X20277641Y-610542D01*
X19724784Y-610059D01*
X19213827Y-821183D01*
X18822556Y-1211770D01*
X18610542Y-1722359D01*
X18610059Y-2275216D01*
X14046526Y-2275216D01*
X13508653Y-1737343D01*
X13489857Y-1724784D01*
X13434944Y-1688093D01*
X13347998Y-1670798D01*
X7899911Y-1670798D01*
X7899906Y-1670797D01*
X7812961Y-1688092D01*
X7812959Y-1688093D01*
X7812960Y-1688093D01*
X7739251Y-1737343D01*
X7739249Y-1737346D01*
X6312343Y-3164251D01*
X6263093Y-3237960D01*
X6245798Y-3324906D01*
X6245798Y-23842998D01*
X6263093Y-23929944D01*
X6312343Y-24003653D01*
X6353711Y-24045021D01*
X6275636Y-24161869D01*
X6200300Y-24540611D01*
X112700Y-24540611D01*
X112700Y-13275216D01*
X610059Y-13275216D01*
X821183Y-13786173D01*
X1211770Y-14177444D01*
X1722359Y-14389458D01*
X2275216Y-14389941D01*
X2786173Y-14178817D01*
X3177444Y-13788230D01*
X3389458Y-13277641D01*
X3389941Y-12724784D01*
X3178817Y-12213827D01*
X2788230Y-11822556D01*
X2277641Y-11610542D01*
X1724784Y-11610059D01*
X1213827Y-11821183D01*
X822556Y-12211770D01*
X610542Y-12722359D01*
X610059Y-13275216D01*
X112700Y-13275216D01*
X112700Y-2275216D01*
X610059Y-2275216D01*
X821183Y-2786173D01*
X1211770Y-3177444D01*
X1722359Y-3389458D01*
X2275216Y-3389941D01*
X2786173Y-3178817D01*
X3177444Y-2788230D01*
X3389458Y-2277641D01*
X3389941Y-1724784D01*
X3178817Y-1213827D01*
X2788230Y-822556D01*
X2277641Y-610542D01*
X1724784Y-610059D01*
X1213827Y-821183D01*
X822556Y-1211770D01*
X610542Y-1722359D01*
X610059Y-2275216D01*
X112700Y-2275216D01*
X112700Y-112700D01*
X21887300Y-112700D01*
X21887300Y-28887300D01*
X21887300Y-28887300D01*
G37*
X21887300Y-28887300D02*
X112700Y-28887300D01*
X112700Y-27080611D01*
X6200300Y-27080611D01*
X6200300Y-27119389D01*
X6275636Y-27498131D01*
X6490176Y-27819213D01*
X6811258Y-28033753D01*
X7190000Y-28109089D01*
X7568742Y-28033753D01*
X7889824Y-27819213D01*
X8104364Y-27498131D01*
X8179700Y-27119389D01*
X8179700Y-27080611D01*
X8740300Y-27080611D01*
X8740300Y-27119389D01*
X8815636Y-27498131D01*
X9030176Y-27819213D01*
X9351258Y-28033753D01*
X9730000Y-28109089D01*
X10108742Y-28033753D01*
X10429824Y-27819213D01*
X10644364Y-27498131D01*
X10719700Y-27119389D01*
X10719700Y-27080611D01*
X10644364Y-26701869D01*
X10429824Y-26380787D01*
X10234088Y-26250000D01*
X13817564Y-26250000D01*
X13817564Y-27950000D01*
X13827305Y-28001769D01*
X13857901Y-28049316D01*
X13904584Y-28081214D01*
X13960000Y-28092436D01*
X15660000Y-28092436D01*
X15711769Y-28082695D01*
X15759316Y-28052099D01*
X15791214Y-28005416D01*
X15802436Y-27950000D01*
X15802436Y-26250000D01*
X15792695Y-26198231D01*
X15762099Y-26150684D01*
X15715416Y-26118786D01*
X15660000Y-26107564D01*
X13960000Y-26107564D01*
X13908231Y-26117305D01*
X13860684Y-26147901D01*
X13828786Y-26194584D01*
X13817564Y-26250000D01*
X10234088Y-26250000D01*
X10108742Y-26166247D01*
X9730000Y-26090911D01*
X9351258Y-26166247D01*
X9030176Y-26380787D01*
X8815636Y-26701869D01*
X8740300Y-27080611D01*
X8179700Y-27080611D01*
X8104364Y-26701869D01*
X7889824Y-26380787D01*
X7568742Y-26166247D01*
X7190000Y-26090911D01*
X6811258Y-26166247D01*
X6490176Y-26380787D01*
X6275636Y-26701869D01*
X6200300Y-27080611D01*
X112700Y-27080611D01*
X112700Y-24540611D01*
X6200300Y-24540611D01*
X6200300Y-24579389D01*
X6275636Y-24958131D01*
X6490176Y-25279213D01*
X6811258Y-25493753D01*
X7190000Y-25569089D01*
X7568742Y-25493753D01*
X7889824Y-25279213D01*
X8104364Y-24958131D01*
X8179700Y-24579389D01*
X8179700Y-24540611D01*
X8104364Y-24161869D01*
X7889824Y-23840787D01*
X7568742Y-23626247D01*
X7190000Y-23550911D01*
X6811258Y-23626247D01*
X6700198Y-23700455D01*
X6700198Y-20746508D01*
X7847800Y-21894109D01*
X7847800Y-23250000D01*
X7865095Y-23336946D01*
X7914345Y-23410655D01*
X8790737Y-24287046D01*
X8740300Y-24540611D01*
X8740300Y-24579389D01*
X8815636Y-24958131D01*
X9030176Y-25279213D01*
X9351258Y-25493753D01*
X9730000Y-25569089D01*
X10108742Y-25493753D01*
X10429824Y-25279213D01*
X10644364Y-24958131D01*
X10719700Y-24579389D01*
X10719700Y-24540611D01*
X10644364Y-24161869D01*
X10429824Y-23840787D01*
X10234088Y-23710000D01*
X13817564Y-23710000D01*
X13817564Y-25410000D01*
X13827305Y-25461769D01*
X13857901Y-25509316D01*
X13904584Y-25541214D01*
X13960000Y-25552436D01*
X15660000Y-25552436D01*
X15711769Y-25542695D01*
X15759316Y-25512099D01*
X15791214Y-25465416D01*
X15802436Y-25410000D01*
X15802436Y-23710000D01*
X15792695Y-23658231D01*
X15762099Y-23610684D01*
X15715416Y-23578786D01*
X15660000Y-23567564D01*
X13960000Y-23567564D01*
X13908231Y-23577305D01*
X13860684Y-23607901D01*
X13828786Y-23654584D01*
X13817564Y-23710000D01*
X10234088Y-23710000D01*
X10108742Y-23626247D01*
X9730000Y-23550911D01*
X9351258Y-23626247D01*
X9030176Y-23840787D01*
X9012921Y-23866611D01*
X8302200Y-23155890D01*
X8302200Y-21898509D01*
X8584343Y-22180652D01*
X8584345Y-22180655D01*
X8658054Y-22229905D01*
X8745000Y-22247200D01*
X8781636Y-22247200D01*
X8815636Y-22418131D01*
X9030176Y-22739213D01*
X9351258Y-22953753D01*
X9730000Y-23029089D01*
X10108742Y-22953753D01*
X10429824Y-22739213D01*
X10644364Y-22418131D01*
X10719700Y-22039389D01*
X10719700Y-22000611D01*
X10644364Y-21621869D01*
X10429824Y-21300787D01*
X10234088Y-21170000D01*
X13817564Y-21170000D01*
X13817564Y-22870000D01*
X13827305Y-22921769D01*
X13857901Y-22969316D01*
X13904584Y-23001214D01*
X13960000Y-23012436D01*
X15660000Y-23012436D01*
X15711769Y-23002695D01*
X15759316Y-22972099D01*
X15791214Y-22925416D01*
X15802436Y-22870000D01*
X15802436Y-21170000D01*
X15792695Y-21118231D01*
X15762099Y-21070684D01*
X15715416Y-21038786D01*
X15660000Y-21027564D01*
X14902200Y-21027564D01*
X14902200Y-20092436D01*
X15175000Y-20092436D01*
X15226769Y-20082695D01*
X15274316Y-20052099D01*
X15306214Y-20005416D01*
X15317436Y-19950000D01*
X15317436Y-18700000D01*
X15307695Y-18648231D01*
X15277099Y-18600684D01*
X15230416Y-18568786D01*
X15175000Y-18557564D01*
X14652200Y-18557564D01*
X14652200Y-18167436D01*
X14825000Y-18167436D01*
X14876769Y-18157695D01*
X14924316Y-18127099D01*
X14956214Y-18080416D01*
X14967436Y-18025000D01*
X14967436Y-17275000D01*
X14957695Y-17223231D01*
X14927099Y-17175684D01*
X14880416Y-17143786D01*
X14825000Y-17132564D01*
X14025000Y-17132564D01*
X13973231Y-17142305D01*
X13925684Y-17172901D01*
X13893786Y-17219584D01*
X13882564Y-17275000D01*
X13882564Y-18025000D01*
X13892305Y-18076769D01*
X13922901Y-18124316D01*
X13969584Y-18156214D01*
X14025000Y-18167436D01*
X14197800Y-18167436D01*
X14197800Y-18557564D01*
X14175000Y-18557564D01*
X14123231Y-18567305D01*
X14075684Y-18597901D01*
X14043786Y-18644584D01*
X14032564Y-18700000D01*
X14032564Y-19950000D01*
X14042305Y-20001769D01*
X14072901Y-20049316D01*
X14119584Y-20081214D01*
X14175000Y-20092436D01*
X14447800Y-20092436D01*
X14447800Y-21027564D01*
X13960000Y-21027564D01*
X13908231Y-21037305D01*
X13860684Y-21067901D01*
X13828786Y-21114584D01*
X13817564Y-21170000D01*
X10234088Y-21170000D01*
X10108742Y-21086247D01*
X9730000Y-21010911D01*
X9351258Y-21086247D01*
X9030176Y-21300787D01*
X8815636Y-21621869D01*
X8791171Y-21744862D01*
X7304202Y-20257892D01*
X7304202Y-3692108D01*
X7731610Y-3264700D01*
X8418390Y-3264700D01*
X8839345Y-3685655D01*
X8913054Y-3734905D01*
X9000000Y-3752200D01*
X9097747Y-3752200D01*
X9068786Y-3794584D01*
X9057564Y-3850000D01*
X9057564Y-4250000D01*
X9058987Y-4257564D01*
X8940904Y-4257564D01*
X8942436Y-4250000D01*
X8942436Y-3850000D01*
X8932695Y-3798231D01*
X8902099Y-3750684D01*
X8855416Y-3718786D01*
X8800000Y-3707564D01*
X8550000Y-3707564D01*
X8498231Y-3717305D01*
X8450684Y-3747901D01*
X8418786Y-3794584D01*
X8407564Y-3850000D01*
X8407564Y-4182564D01*
X8075000Y-4182564D01*
X8023231Y-4192305D01*
X7975684Y-4222901D01*
X7943786Y-4269584D01*
X7932564Y-4325000D01*
X7932564Y-4575000D01*
X7942305Y-4626769D01*
X7972901Y-4674316D01*
X8019584Y-4706214D01*
X8075000Y-4717436D01*
X8475000Y-4717436D01*
X8482564Y-4716013D01*
X8482564Y-4834096D01*
X8475000Y-4832564D01*
X8075000Y-4832564D01*
X8023231Y-4842305D01*
X7975684Y-4872901D01*
X7943786Y-4919584D01*
X7932564Y-4975000D01*
X7932564Y-5225000D01*
X7942305Y-5276769D01*
X7972901Y-5324316D01*
X8019584Y-5356214D01*
X8075000Y-5367436D01*
X8475000Y-5367436D01*
X8482564Y-5366013D01*
X8482564Y-5484096D01*
X8475000Y-5482564D01*
X8075000Y-5482564D01*
X8023231Y-5492305D01*
X7975684Y-5522901D01*
X7943786Y-5569584D01*
X7932564Y-5625000D01*
X7932564Y-5875000D01*
X7942305Y-5926769D01*
X7972901Y-5974316D01*
X8019584Y-6006214D01*
X8047800Y-6011928D01*
X8047800Y-6137682D01*
X8023231Y-6142305D01*
X7975684Y-6172901D01*
X7943786Y-6219584D01*
X7932564Y-6275000D01*
X7932564Y-6525000D01*
X7942305Y-6576769D01*
X7972901Y-6624316D01*
X8019584Y-6656214D01*
X8047800Y-6661928D01*
X8047800Y-6787682D01*
X8023231Y-6792305D01*
X7975684Y-6822901D01*
X7943786Y-6869584D01*
X7932564Y-6925000D01*
X7932564Y-7175000D01*
X7942305Y-7226769D01*
X7972901Y-7274316D01*
X8019584Y-7306214D01*
X8075000Y-7317436D01*
X8475000Y-7317436D01*
X8482564Y-7316013D01*
X8482564Y-9050000D01*
X8487161Y-9074429D01*
X8450684Y-9097901D01*
X8418786Y-9144584D01*
X8407564Y-9200000D01*
X8407564Y-9600000D01*
X8417305Y-9651769D01*
X8447901Y-9699316D01*
X8494584Y-9731214D01*
X8550000Y-9742436D01*
X8800000Y-9742436D01*
X8851769Y-9732695D01*
X8899316Y-9702099D01*
X8931214Y-9655416D01*
X8942436Y-9600000D01*
X8942436Y-9200000D01*
X8941013Y-9192436D01*
X9059096Y-9192436D01*
X9057564Y-9200000D01*
X9057564Y-9600000D01*
X9067305Y-9651769D01*
X9097901Y-9699316D01*
X9144584Y-9731214D01*
X9200000Y-9742436D01*
X9450000Y-9742436D01*
X9501769Y-9732695D01*
X9549316Y-9702099D01*
X9581214Y-9655416D01*
X9592436Y-9600000D01*
X9592436Y-9200000D01*
X9591013Y-9192436D01*
X9709096Y-9192436D01*
X9707564Y-9200000D01*
X9707564Y-9600000D01*
X9717305Y-9651769D01*
X9747901Y-9699316D01*
X9794584Y-9731214D01*
X9850000Y-9742436D01*
X10100000Y-9742436D01*
X10151769Y-9732695D01*
X10199316Y-9702099D01*
X10231214Y-9655416D01*
X10242436Y-9600000D01*
X10242436Y-9200000D01*
X10241013Y-9192436D01*
X10359096Y-9192436D01*
X10357564Y-9200000D01*
X10357564Y-9600000D01*
X10367305Y-9651769D01*
X10397901Y-9699316D01*
X10444584Y-9731214D01*
X10500000Y-9742436D01*
X10750000Y-9742436D01*
X10801769Y-9732695D01*
X10849316Y-9702099D01*
X10881214Y-9655416D01*
X10892436Y-9600000D01*
X10892436Y-9200000D01*
X10891013Y-9192436D01*
X11009096Y-9192436D01*
X11007564Y-9200000D01*
X11007564Y-9600000D01*
X11017305Y-9651769D01*
X11047901Y-9699316D01*
X11094584Y-9731214D01*
X11150000Y-9742436D01*
X11400000Y-9742436D01*
X11451769Y-9732695D01*
X11499316Y-9702099D01*
X11531214Y-9655416D01*
X11542436Y-9600000D01*
X11542436Y-9200000D01*
X11541013Y-9192436D01*
X11659096Y-9192436D01*
X11657564Y-9200000D01*
X11657564Y-9600000D01*
X11667305Y-9651769D01*
X11697901Y-9699316D01*
X11744584Y-9731214D01*
X11800000Y-9742436D01*
X12050000Y-9742436D01*
X12101769Y-9732695D01*
X12149316Y-9702099D01*
X12181214Y-9655416D01*
X12192436Y-9600000D01*
X12192436Y-9200000D01*
X12191013Y-9192436D01*
X12309096Y-9192436D01*
X12307564Y-9200000D01*
X12307564Y-9600000D01*
X12317305Y-9651769D01*
X12347901Y-9699316D01*
X12394584Y-9731214D01*
X12450000Y-9742436D01*
X12700000Y-9742436D01*
X12751769Y-9732695D01*
X12799316Y-9702099D01*
X12831214Y-9655416D01*
X12842436Y-9600000D01*
X12842436Y-9200000D01*
X12841013Y-9192436D01*
X12959096Y-9192436D01*
X12957564Y-9200000D01*
X12957564Y-9600000D01*
X12967305Y-9651769D01*
X12997901Y-9699316D01*
X13044584Y-9731214D01*
X13100000Y-9742436D01*
X13350000Y-9742436D01*
X13401769Y-9732695D01*
X13449316Y-9702099D01*
X13481214Y-9655416D01*
X13492436Y-9600000D01*
X13492436Y-9267436D01*
X13825000Y-9267436D01*
X13876769Y-9257695D01*
X13924159Y-9227200D01*
X14205890Y-9227200D01*
X14622800Y-9644109D01*
X14622800Y-13005890D01*
X13768374Y-13860316D01*
X13682726Y-13860241D01*
X13557827Y-13911849D01*
X13462184Y-14007324D01*
X13410359Y-14132133D01*
X13410241Y-14267274D01*
X13461849Y-14392173D01*
X13557324Y-14487816D01*
X13682133Y-14539641D01*
X13817274Y-14539759D01*
X13942173Y-14488151D01*
X14037816Y-14392676D01*
X14089641Y-14267867D01*
X14089716Y-14181594D01*
X14996094Y-13275216D01*
X18610059Y-13275216D01*
X18821183Y-13786173D01*
X19211770Y-14177444D01*
X19722359Y-14389458D01*
X20275216Y-14389941D01*
X20786173Y-14178817D01*
X21177444Y-13788230D01*
X21389458Y-13277641D01*
X21389941Y-12724784D01*
X21178817Y-12213827D01*
X20788230Y-11822556D01*
X20277641Y-11610542D01*
X19724784Y-11610059D01*
X19213827Y-11821183D01*
X18822556Y-12211770D01*
X18610542Y-12722359D01*
X18610059Y-13275216D01*
X14996094Y-13275216D01*
X15010655Y-13260655D01*
X15059905Y-13186946D01*
X15062775Y-13172520D01*
X15077201Y-13100000D01*
X15077200Y-13099995D01*
X15077200Y-11932683D01*
X15082324Y-11937816D01*
X15207133Y-11989641D01*
X15342274Y-11989759D01*
X15467173Y-11938151D01*
X15562816Y-11842676D01*
X15614641Y-11717867D01*
X15614759Y-11582726D01*
X15563151Y-11457827D01*
X15467676Y-11362184D01*
X15379202Y-11325447D01*
X15379202Y-9424906D01*
X15361907Y-9337960D01*
X15312657Y-9264251D01*
X15312654Y-9264249D01*
X14562751Y-8514345D01*
X14557228Y-8510655D01*
X14489042Y-8465095D01*
X14402096Y-8447800D01*
X14269109Y-8447800D01*
X14010655Y-8189345D01*
X13981080Y-8169584D01*
X13936946Y-8140095D01*
X13936288Y-8139964D01*
X13927099Y-8125684D01*
X13880416Y-8093786D01*
X13825000Y-8082564D01*
X13425000Y-8082564D01*
X13417436Y-8083987D01*
X13417436Y-7965904D01*
X13425000Y-7967436D01*
X13825000Y-7967436D01*
X13876769Y-7957695D01*
X13924316Y-7927099D01*
X13956214Y-7880416D01*
X13967436Y-7825000D01*
X13967436Y-7575000D01*
X13957695Y-7523231D01*
X13927099Y-7475684D01*
X13880416Y-7443786D01*
X13825000Y-7432564D01*
X13425000Y-7432564D01*
X13417436Y-7433987D01*
X13417436Y-7315904D01*
X13425000Y-7317436D01*
X13825000Y-7317436D01*
X13876769Y-7307695D01*
X13924316Y-7277099D01*
X13956214Y-7230416D01*
X13967436Y-7175000D01*
X13967436Y-6925000D01*
X13957695Y-6873231D01*
X13927099Y-6825684D01*
X13880416Y-6793786D01*
X13825000Y-6782564D01*
X13425000Y-6782564D01*
X13417436Y-6783987D01*
X13417436Y-6665904D01*
X13425000Y-6667436D01*
X13825000Y-6667436D01*
X13876769Y-6657695D01*
X13924316Y-6627099D01*
X13956214Y-6580416D01*
X13967436Y-6525000D01*
X13967436Y-6275000D01*
X13957695Y-6223231D01*
X13927099Y-6175684D01*
X13880416Y-6143786D01*
X13825000Y-6132564D01*
X13425000Y-6132564D01*
X13417436Y-6133987D01*
X13417436Y-6015904D01*
X13425000Y-6017436D01*
X13825000Y-6017436D01*
X13876769Y-6007695D01*
X13924316Y-5977099D01*
X13956214Y-5930416D01*
X13967436Y-5875000D01*
X13967436Y-5625000D01*
X13957695Y-5573231D01*
X13927099Y-5525684D01*
X13880416Y-5493786D01*
X13825000Y-5482564D01*
X13425000Y-5482564D01*
X13417436Y-5483987D01*
X13417436Y-5365904D01*
X13425000Y-5367436D01*
X13825000Y-5367436D01*
X13876769Y-5357695D01*
X13924316Y-5327099D01*
X13956214Y-5280416D01*
X13967436Y-5225000D01*
X13967436Y-4975000D01*
X13957695Y-4923231D01*
X13927099Y-4875684D01*
X13880416Y-4843786D01*
X13825000Y-4832564D01*
X13425000Y-4832564D01*
X13417436Y-4833987D01*
X13417436Y-4715904D01*
X13425000Y-4717436D01*
X13825000Y-4717436D01*
X13876769Y-4707695D01*
X13924316Y-4677099D01*
X13956214Y-4630416D01*
X13967436Y-4575000D01*
X13967436Y-4325000D01*
X13957695Y-4273231D01*
X13927099Y-4225684D01*
X13880416Y-4193786D01*
X13825000Y-4182564D01*
X13492436Y-4182564D01*
X13492436Y-3850000D01*
X13482695Y-3798231D01*
X13452200Y-3750841D01*
X13452200Y-3419110D01*
X13553874Y-3317436D01*
X14650000Y-3317436D01*
X14701769Y-3307695D01*
X14749316Y-3277099D01*
X14781214Y-3230416D01*
X14792436Y-3175000D01*
X14792436Y-2475000D01*
X14782695Y-2423231D01*
X14752099Y-2375684D01*
X14705416Y-2343786D01*
X14650000Y-2332564D01*
X14103874Y-2332564D01*
X14046526Y-2275216D01*
X18610059Y-2275216D01*
X18821183Y-2786173D01*
X19211770Y-3177444D01*
X19722359Y-3389458D01*
X20275216Y-3389941D01*
X20786173Y-3178817D01*
X21177444Y-2788230D01*
X21389458Y-2277641D01*
X21389941Y-1724784D01*
X21178817Y-1213827D01*
X20788230Y-822556D01*
X20277641Y-610542D01*
X19724784Y-610059D01*
X19213827Y-821183D01*
X18822556Y-1211770D01*
X18610542Y-1722359D01*
X18610059Y-2275216D01*
X14046526Y-2275216D01*
X13508653Y-1737343D01*
X13489857Y-1724784D01*
X13434944Y-1688093D01*
X13347998Y-1670798D01*
X7899911Y-1670798D01*
X7899906Y-1670797D01*
X7812961Y-1688092D01*
X7812959Y-1688093D01*
X7812960Y-1688093D01*
X7739251Y-1737343D01*
X7739249Y-1737346D01*
X6312343Y-3164251D01*
X6263093Y-3237960D01*
X6245798Y-3324906D01*
X6245798Y-23842998D01*
X6263093Y-23929944D01*
X6312343Y-24003653D01*
X6353711Y-24045021D01*
X6275636Y-24161869D01*
X6200300Y-24540611D01*
X112700Y-24540611D01*
X112700Y-13275216D01*
X610059Y-13275216D01*
X821183Y-13786173D01*
X1211770Y-14177444D01*
X1722359Y-14389458D01*
X2275216Y-14389941D01*
X2786173Y-14178817D01*
X3177444Y-13788230D01*
X3389458Y-13277641D01*
X3389941Y-12724784D01*
X3178817Y-12213827D01*
X2788230Y-11822556D01*
X2277641Y-11610542D01*
X1724784Y-11610059D01*
X1213827Y-11821183D01*
X822556Y-12211770D01*
X610542Y-12722359D01*
X610059Y-13275216D01*
X112700Y-13275216D01*
X112700Y-2275216D01*
X610059Y-2275216D01*
X821183Y-2786173D01*
X1211770Y-3177444D01*
X1722359Y-3389458D01*
X2275216Y-3389941D01*
X2786173Y-3178817D01*
X3177444Y-2788230D01*
X3389458Y-2277641D01*
X3389941Y-1724784D01*
X3178817Y-1213827D01*
X2788230Y-822556D01*
X2277641Y-610542D01*
X1724784Y-610059D01*
X1213827Y-821183D01*
X822556Y-1211770D01*
X610542Y-1722359D01*
X610059Y-2275216D01*
X112700Y-2275216D01*
X112700Y-112700D01*
X21887300Y-112700D01*
X21887300Y-28887300D01*
M02*
