G04 #@! TF.FileFunction,Soldermask,Top*
%FSLAX46Y46*%
G04 Gerber Fmt 4.6, Leading zero omitted, Abs format (unit mm)*
G04 Created by KiCad (PCBNEW 4.0.7) date Thursday, June 14, 2018 'PMt' 12:28:10 PM*
%MOMM*%
%LPD*%
G01*
G04 APERTURE LIST*
%ADD10C,0.100000*%
G04 APERTURE END LIST*
D10*
G36*
X7386393Y-26138218D02*
X7386411Y-26138224D01*
X7386453Y-26138228D01*
X7568603Y-26194613D01*
X7736331Y-26285303D01*
X7883251Y-26406845D01*
X8003764Y-26554609D01*
X8093281Y-26722967D01*
X8148393Y-26905506D01*
X8167000Y-27095273D01*
X8167000Y-27104882D01*
X8166924Y-27115791D01*
X8166923Y-27115801D01*
X8166905Y-27118368D01*
X8145650Y-27307857D01*
X8087995Y-27489608D01*
X7996136Y-27656700D01*
X7873571Y-27802767D01*
X7724969Y-27922246D01*
X7555991Y-28010586D01*
X7373072Y-28064422D01*
X7373032Y-28064426D01*
X7373017Y-28064430D01*
X7183179Y-28081707D01*
X6993607Y-28061782D01*
X6993589Y-28061776D01*
X6993547Y-28061772D01*
X6811397Y-28005387D01*
X6643669Y-27914697D01*
X6496749Y-27793155D01*
X6376236Y-27645391D01*
X6286719Y-27477033D01*
X6231607Y-27294494D01*
X6213000Y-27104727D01*
X6213000Y-27095118D01*
X6213076Y-27084209D01*
X6213077Y-27084199D01*
X6213095Y-27081632D01*
X6234350Y-26892143D01*
X6292005Y-26710392D01*
X6383864Y-26543300D01*
X6506429Y-26397233D01*
X6655031Y-26277754D01*
X6824009Y-26189414D01*
X7006928Y-26135578D01*
X7006968Y-26135574D01*
X7006983Y-26135570D01*
X7196821Y-26118293D01*
X7386393Y-26138218D01*
X7386393Y-26138218D01*
G37*
G36*
X9926393Y-26138218D02*
X9926411Y-26138224D01*
X9926453Y-26138228D01*
X10108603Y-26194613D01*
X10276331Y-26285303D01*
X10423251Y-26406845D01*
X10543764Y-26554609D01*
X10633281Y-26722967D01*
X10688393Y-26905506D01*
X10707000Y-27095273D01*
X10707000Y-27104882D01*
X10706924Y-27115791D01*
X10706923Y-27115801D01*
X10706905Y-27118368D01*
X10685650Y-27307857D01*
X10627995Y-27489608D01*
X10536136Y-27656700D01*
X10413571Y-27802767D01*
X10264969Y-27922246D01*
X10095991Y-28010586D01*
X9913072Y-28064422D01*
X9913032Y-28064426D01*
X9913017Y-28064430D01*
X9723179Y-28081707D01*
X9533607Y-28061782D01*
X9533589Y-28061776D01*
X9533547Y-28061772D01*
X9351397Y-28005387D01*
X9183669Y-27914697D01*
X9036749Y-27793155D01*
X8916236Y-27645391D01*
X8826719Y-27477033D01*
X8771607Y-27294494D01*
X8753000Y-27104727D01*
X8753000Y-27095118D01*
X8753076Y-27084209D01*
X8753077Y-27084199D01*
X8753095Y-27081632D01*
X8774350Y-26892143D01*
X8832005Y-26710392D01*
X8923864Y-26543300D01*
X9046429Y-26397233D01*
X9195031Y-26277754D01*
X9364009Y-26189414D01*
X9546928Y-26135578D01*
X9546968Y-26135574D01*
X9546983Y-26135570D01*
X9736821Y-26118293D01*
X9926393Y-26138218D01*
X9926393Y-26138218D01*
G37*
G36*
X12466393Y-26138218D02*
X12466411Y-26138224D01*
X12466453Y-26138228D01*
X12648603Y-26194613D01*
X12816331Y-26285303D01*
X12963251Y-26406845D01*
X13083764Y-26554609D01*
X13173281Y-26722967D01*
X13228393Y-26905506D01*
X13247000Y-27095273D01*
X13247000Y-27104882D01*
X13246924Y-27115791D01*
X13246923Y-27115801D01*
X13246905Y-27118368D01*
X13225650Y-27307857D01*
X13167995Y-27489608D01*
X13076136Y-27656700D01*
X12953571Y-27802767D01*
X12804969Y-27922246D01*
X12635991Y-28010586D01*
X12453072Y-28064422D01*
X12453032Y-28064426D01*
X12453017Y-28064430D01*
X12263179Y-28081707D01*
X12073607Y-28061782D01*
X12073589Y-28061776D01*
X12073547Y-28061772D01*
X11891397Y-28005387D01*
X11723669Y-27914697D01*
X11576749Y-27793155D01*
X11456236Y-27645391D01*
X11366719Y-27477033D01*
X11311607Y-27294494D01*
X11293000Y-27104727D01*
X11293000Y-27095118D01*
X11293076Y-27084209D01*
X11293077Y-27084199D01*
X11293095Y-27081632D01*
X11314350Y-26892143D01*
X11372005Y-26710392D01*
X11463864Y-26543300D01*
X11586429Y-26397233D01*
X11735031Y-26277754D01*
X11904009Y-26189414D01*
X12086928Y-26135578D01*
X12086968Y-26135574D01*
X12086983Y-26135570D01*
X12276821Y-26118293D01*
X12466393Y-26138218D01*
X12466393Y-26138218D01*
G37*
G36*
X15787000Y-28077000D02*
X13833000Y-28077000D01*
X13833000Y-26123000D01*
X15787000Y-26123000D01*
X15787000Y-28077000D01*
X15787000Y-28077000D01*
G37*
G36*
X7386393Y-23598218D02*
X7386411Y-23598224D01*
X7386453Y-23598228D01*
X7568603Y-23654613D01*
X7736331Y-23745303D01*
X7883251Y-23866845D01*
X8003764Y-24014609D01*
X8093281Y-24182967D01*
X8148393Y-24365506D01*
X8167000Y-24555273D01*
X8167000Y-24564882D01*
X8166924Y-24575791D01*
X8166923Y-24575801D01*
X8166905Y-24578368D01*
X8145650Y-24767857D01*
X8087995Y-24949608D01*
X7996136Y-25116700D01*
X7873571Y-25262767D01*
X7724969Y-25382246D01*
X7555991Y-25470586D01*
X7373072Y-25524422D01*
X7373032Y-25524426D01*
X7373017Y-25524430D01*
X7183179Y-25541707D01*
X6993607Y-25521782D01*
X6993589Y-25521776D01*
X6993547Y-25521772D01*
X6811397Y-25465387D01*
X6643669Y-25374697D01*
X6496749Y-25253155D01*
X6376236Y-25105391D01*
X6286719Y-24937033D01*
X6231607Y-24754494D01*
X6213000Y-24564727D01*
X6213000Y-24555118D01*
X6213076Y-24544209D01*
X6213077Y-24544199D01*
X6213095Y-24541632D01*
X6234350Y-24352143D01*
X6292005Y-24170392D01*
X6383864Y-24003300D01*
X6506429Y-23857233D01*
X6655031Y-23737754D01*
X6824009Y-23649414D01*
X7006928Y-23595578D01*
X7006968Y-23595574D01*
X7006983Y-23595570D01*
X7196821Y-23578293D01*
X7386393Y-23598218D01*
X7386393Y-23598218D01*
G37*
G36*
X9926393Y-23598218D02*
X9926411Y-23598224D01*
X9926453Y-23598228D01*
X10108603Y-23654613D01*
X10276331Y-23745303D01*
X10423251Y-23866845D01*
X10543764Y-24014609D01*
X10633281Y-24182967D01*
X10688393Y-24365506D01*
X10707000Y-24555273D01*
X10707000Y-24564882D01*
X10706924Y-24575791D01*
X10706923Y-24575801D01*
X10706905Y-24578368D01*
X10685650Y-24767857D01*
X10627995Y-24949608D01*
X10536136Y-25116700D01*
X10413571Y-25262767D01*
X10264969Y-25382246D01*
X10095991Y-25470586D01*
X9913072Y-25524422D01*
X9913032Y-25524426D01*
X9913017Y-25524430D01*
X9723179Y-25541707D01*
X9533607Y-25521782D01*
X9533589Y-25521776D01*
X9533547Y-25521772D01*
X9351397Y-25465387D01*
X9183669Y-25374697D01*
X9036749Y-25253155D01*
X8916236Y-25105391D01*
X8826719Y-24937033D01*
X8771607Y-24754494D01*
X8753000Y-24564727D01*
X8753000Y-24555118D01*
X8753076Y-24544209D01*
X8753077Y-24544199D01*
X8753095Y-24541632D01*
X8774350Y-24352143D01*
X8832005Y-24170392D01*
X8923864Y-24003300D01*
X9046429Y-23857233D01*
X9195031Y-23737754D01*
X9364009Y-23649414D01*
X9546928Y-23595578D01*
X9546968Y-23595574D01*
X9546983Y-23595570D01*
X9736821Y-23578293D01*
X9926393Y-23598218D01*
X9926393Y-23598218D01*
G37*
G36*
X12466393Y-23598218D02*
X12466411Y-23598224D01*
X12466453Y-23598228D01*
X12648603Y-23654613D01*
X12816331Y-23745303D01*
X12963251Y-23866845D01*
X13083764Y-24014609D01*
X13173281Y-24182967D01*
X13228393Y-24365506D01*
X13247000Y-24555273D01*
X13247000Y-24564882D01*
X13246924Y-24575791D01*
X13246923Y-24575801D01*
X13246905Y-24578368D01*
X13225650Y-24767857D01*
X13167995Y-24949608D01*
X13076136Y-25116700D01*
X12953571Y-25262767D01*
X12804969Y-25382246D01*
X12635991Y-25470586D01*
X12453072Y-25524422D01*
X12453032Y-25524426D01*
X12453017Y-25524430D01*
X12263179Y-25541707D01*
X12073607Y-25521782D01*
X12073589Y-25521776D01*
X12073547Y-25521772D01*
X11891397Y-25465387D01*
X11723669Y-25374697D01*
X11576749Y-25253155D01*
X11456236Y-25105391D01*
X11366719Y-24937033D01*
X11311607Y-24754494D01*
X11293000Y-24564727D01*
X11293000Y-24555118D01*
X11293076Y-24544209D01*
X11293077Y-24544199D01*
X11293095Y-24541632D01*
X11314350Y-24352143D01*
X11372005Y-24170392D01*
X11463864Y-24003300D01*
X11586429Y-23857233D01*
X11735031Y-23737754D01*
X11904009Y-23649414D01*
X12086928Y-23595578D01*
X12086968Y-23595574D01*
X12086983Y-23595570D01*
X12276821Y-23578293D01*
X12466393Y-23598218D01*
X12466393Y-23598218D01*
G37*
G36*
X15787000Y-25537000D02*
X13833000Y-25537000D01*
X13833000Y-23583000D01*
X15787000Y-23583000D01*
X15787000Y-25537000D01*
X15787000Y-25537000D01*
G37*
G36*
X12466393Y-21058218D02*
X12466411Y-21058224D01*
X12466453Y-21058228D01*
X12648603Y-21114613D01*
X12816331Y-21205303D01*
X12963251Y-21326845D01*
X13083764Y-21474609D01*
X13173281Y-21642967D01*
X13228393Y-21825506D01*
X13247000Y-22015273D01*
X13247000Y-22024882D01*
X13246924Y-22035791D01*
X13246923Y-22035801D01*
X13246905Y-22038368D01*
X13225650Y-22227857D01*
X13167995Y-22409608D01*
X13076136Y-22576700D01*
X12953571Y-22722767D01*
X12804969Y-22842246D01*
X12635991Y-22930586D01*
X12453072Y-22984422D01*
X12453032Y-22984426D01*
X12453017Y-22984430D01*
X12263179Y-23001707D01*
X12073607Y-22981782D01*
X12073589Y-22981776D01*
X12073547Y-22981772D01*
X11891397Y-22925387D01*
X11723669Y-22834697D01*
X11576749Y-22713155D01*
X11456236Y-22565391D01*
X11366719Y-22397033D01*
X11311607Y-22214494D01*
X11293000Y-22024727D01*
X11293000Y-22015118D01*
X11293076Y-22004209D01*
X11293077Y-22004199D01*
X11293095Y-22001632D01*
X11314350Y-21812143D01*
X11372005Y-21630392D01*
X11463864Y-21463300D01*
X11586429Y-21317233D01*
X11735031Y-21197754D01*
X11904009Y-21109414D01*
X12086928Y-21055578D01*
X12086968Y-21055574D01*
X12086983Y-21055570D01*
X12276821Y-21038293D01*
X12466393Y-21058218D01*
X12466393Y-21058218D01*
G37*
G36*
X9926393Y-21058218D02*
X9926411Y-21058224D01*
X9926453Y-21058228D01*
X10108603Y-21114613D01*
X10276331Y-21205303D01*
X10423251Y-21326845D01*
X10543764Y-21474609D01*
X10633281Y-21642967D01*
X10688393Y-21825506D01*
X10707000Y-22015273D01*
X10707000Y-22024882D01*
X10706924Y-22035791D01*
X10706923Y-22035801D01*
X10706905Y-22038368D01*
X10685650Y-22227857D01*
X10627995Y-22409608D01*
X10536136Y-22576700D01*
X10413571Y-22722767D01*
X10264969Y-22842246D01*
X10095991Y-22930586D01*
X9913072Y-22984422D01*
X9913032Y-22984426D01*
X9913017Y-22984430D01*
X9723179Y-23001707D01*
X9533607Y-22981782D01*
X9533589Y-22981776D01*
X9533547Y-22981772D01*
X9351397Y-22925387D01*
X9183669Y-22834697D01*
X9036749Y-22713155D01*
X8916236Y-22565391D01*
X8826719Y-22397033D01*
X8771607Y-22214494D01*
X8753000Y-22024727D01*
X8753000Y-22015118D01*
X8753076Y-22004209D01*
X8753077Y-22004199D01*
X8753095Y-22001632D01*
X8774350Y-21812143D01*
X8832005Y-21630392D01*
X8923864Y-21463300D01*
X9046429Y-21317233D01*
X9195031Y-21197754D01*
X9364009Y-21109414D01*
X9546928Y-21055578D01*
X9546968Y-21055574D01*
X9546983Y-21055570D01*
X9736821Y-21038293D01*
X9926393Y-21058218D01*
X9926393Y-21058218D01*
G37*
G36*
X15787000Y-22997000D02*
X13833000Y-22997000D01*
X13833000Y-21043000D01*
X15787000Y-21043000D01*
X15787000Y-22997000D01*
X15787000Y-22997000D01*
G37*
G36*
X13302000Y-20077000D02*
X12048000Y-20077000D01*
X12048000Y-18573000D01*
X13302000Y-18573000D01*
X13302000Y-20077000D01*
X13302000Y-20077000D01*
G37*
G36*
X15302000Y-20077000D02*
X14048000Y-20077000D01*
X14048000Y-18573000D01*
X15302000Y-18573000D01*
X15302000Y-20077000D01*
X15302000Y-20077000D01*
G37*
G36*
X13452000Y-18152000D02*
X12398000Y-18152000D01*
X12398000Y-17148000D01*
X13452000Y-17148000D01*
X13452000Y-18152000D01*
X13452000Y-18152000D01*
G37*
G36*
X14952000Y-18152000D02*
X13898000Y-18152000D01*
X13898000Y-17148000D01*
X14952000Y-17148000D01*
X14952000Y-18152000D01*
X14952000Y-18152000D01*
G37*
G36*
X20144631Y-11623914D02*
X20409163Y-11678214D01*
X20658102Y-11782859D01*
X20881982Y-11933868D01*
X21072266Y-12125486D01*
X21221702Y-12350404D01*
X21324609Y-12600076D01*
X21376975Y-12864540D01*
X21376975Y-12864553D01*
X21377059Y-12864978D01*
X21372752Y-13173419D01*
X21372655Y-13173845D01*
X21372655Y-13173857D01*
X21312927Y-13436753D01*
X21203090Y-13683450D01*
X21047429Y-13904115D01*
X20851870Y-14090343D01*
X20623865Y-14235039D01*
X20372092Y-14332696D01*
X20106154Y-14379588D01*
X19836171Y-14373932D01*
X19572421Y-14315943D01*
X19324965Y-14207833D01*
X19103220Y-14053715D01*
X18915631Y-13859462D01*
X18769345Y-13632471D01*
X18669936Y-13381390D01*
X18621187Y-13115782D01*
X18624958Y-12845761D01*
X18681102Y-12581623D01*
X18787484Y-12333415D01*
X18940050Y-12110598D01*
X19132990Y-11921657D01*
X19358954Y-11773790D01*
X19609335Y-11672630D01*
X19874596Y-11622028D01*
X20144631Y-11623914D01*
X20144631Y-11623914D01*
G37*
G36*
X2144631Y-11623914D02*
X2409163Y-11678214D01*
X2658102Y-11782859D01*
X2881982Y-11933868D01*
X3072266Y-12125486D01*
X3221702Y-12350404D01*
X3324609Y-12600076D01*
X3376975Y-12864540D01*
X3376975Y-12864553D01*
X3377059Y-12864978D01*
X3372752Y-13173419D01*
X3372655Y-13173845D01*
X3372655Y-13173857D01*
X3312927Y-13436753D01*
X3203090Y-13683450D01*
X3047429Y-13904115D01*
X2851870Y-14090343D01*
X2623865Y-14235039D01*
X2372092Y-14332696D01*
X2106154Y-14379588D01*
X1836171Y-14373932D01*
X1572421Y-14315943D01*
X1324965Y-14207833D01*
X1103220Y-14053715D01*
X915631Y-13859462D01*
X769345Y-13632471D01*
X669936Y-13381390D01*
X621187Y-13115782D01*
X624958Y-12845761D01*
X681102Y-12581623D01*
X787484Y-12333415D01*
X940050Y-12110598D01*
X1132990Y-11921657D01*
X1358954Y-11773790D01*
X1609335Y-11672630D01*
X1874596Y-11622028D01*
X2144631Y-11623914D01*
X2144631Y-11623914D01*
G37*
G36*
X8977000Y-4544500D02*
X8979514Y-4562191D01*
X8986857Y-4578481D01*
X8998448Y-4592080D01*
X9013368Y-4601912D01*
X9030437Y-4607198D01*
X9040500Y-4608000D01*
X9059500Y-4608000D01*
X9077191Y-4605486D01*
X9093481Y-4598143D01*
X9107080Y-4586552D01*
X9116912Y-4571632D01*
X9122198Y-4554563D01*
X9123000Y-4544500D01*
X9123000Y-4058000D01*
X9627000Y-4058000D01*
X9627000Y-4544500D01*
X9629514Y-4562191D01*
X9636857Y-4578481D01*
X9648448Y-4592080D01*
X9663368Y-4601912D01*
X9680437Y-4607198D01*
X9690500Y-4608000D01*
X9709500Y-4608000D01*
X9727191Y-4605486D01*
X9743481Y-4598143D01*
X9757080Y-4586552D01*
X9766912Y-4571632D01*
X9772198Y-4554563D01*
X9773000Y-4544500D01*
X9773000Y-4058000D01*
X10277000Y-4058000D01*
X10277000Y-4544500D01*
X10279514Y-4562191D01*
X10286857Y-4578481D01*
X10298448Y-4592080D01*
X10313368Y-4601912D01*
X10330437Y-4607198D01*
X10340500Y-4608000D01*
X10359500Y-4608000D01*
X10377191Y-4605486D01*
X10393481Y-4598143D01*
X10407080Y-4586552D01*
X10416912Y-4571632D01*
X10422198Y-4554563D01*
X10423000Y-4544500D01*
X10423000Y-4058000D01*
X10927000Y-4058000D01*
X10927000Y-4544500D01*
X10929514Y-4562191D01*
X10936857Y-4578481D01*
X10948448Y-4592080D01*
X10963368Y-4601912D01*
X10980437Y-4607198D01*
X10990500Y-4608000D01*
X11009500Y-4608000D01*
X11027191Y-4605486D01*
X11043481Y-4598143D01*
X11057080Y-4586552D01*
X11066912Y-4571632D01*
X11072198Y-4554563D01*
X11073000Y-4544500D01*
X11073000Y-4058000D01*
X11577000Y-4058000D01*
X11577000Y-4544500D01*
X11579514Y-4562191D01*
X11586857Y-4578481D01*
X11598448Y-4592080D01*
X11613368Y-4601912D01*
X11630437Y-4607198D01*
X11640500Y-4608000D01*
X11659500Y-4608000D01*
X11677191Y-4605486D01*
X11693481Y-4598143D01*
X11707080Y-4586552D01*
X11716912Y-4571632D01*
X11722198Y-4554563D01*
X11723000Y-4544500D01*
X11723000Y-4058000D01*
X12227000Y-4058000D01*
X12227000Y-4544500D01*
X12229514Y-4562191D01*
X12236857Y-4578481D01*
X12248448Y-4592080D01*
X12263368Y-4601912D01*
X12280437Y-4607198D01*
X12290500Y-4608000D01*
X12309500Y-4608000D01*
X12327191Y-4605486D01*
X12343481Y-4598143D01*
X12357080Y-4586552D01*
X12366912Y-4571632D01*
X12372198Y-4554563D01*
X12373000Y-4544500D01*
X12373000Y-4058000D01*
X12877000Y-4058000D01*
X12877000Y-4544500D01*
X12879514Y-4562191D01*
X12886857Y-4578481D01*
X12898448Y-4592080D01*
X12913368Y-4601912D01*
X12930437Y-4607198D01*
X12940500Y-4608000D01*
X12959500Y-4608000D01*
X12977191Y-4605486D01*
X12993481Y-4598143D01*
X13007080Y-4586552D01*
X13016912Y-4571632D01*
X13022198Y-4554563D01*
X13023000Y-4544500D01*
X13023000Y-4058000D01*
X13527000Y-4058000D01*
X13527000Y-4469500D01*
X13529514Y-4487191D01*
X13536857Y-4503481D01*
X13548448Y-4517080D01*
X13563368Y-4526912D01*
X13580437Y-4532198D01*
X13590500Y-4533000D01*
X14002000Y-4533000D01*
X14002000Y-5037000D01*
X13515500Y-5037000D01*
X13497809Y-5039514D01*
X13481519Y-5046857D01*
X13467920Y-5058448D01*
X13458088Y-5073368D01*
X13452802Y-5090437D01*
X13452000Y-5100500D01*
X13452000Y-5119500D01*
X13454514Y-5137191D01*
X13461857Y-5153481D01*
X13473448Y-5167080D01*
X13488368Y-5176912D01*
X13505437Y-5182198D01*
X13515500Y-5183000D01*
X14002000Y-5183000D01*
X14002000Y-5687000D01*
X13515500Y-5687000D01*
X13497809Y-5689514D01*
X13481519Y-5696857D01*
X13467920Y-5708448D01*
X13458088Y-5723368D01*
X13452802Y-5740437D01*
X13452000Y-5750500D01*
X13452000Y-5769500D01*
X13454514Y-5787191D01*
X13461857Y-5803481D01*
X13473448Y-5817080D01*
X13488368Y-5826912D01*
X13505437Y-5832198D01*
X13515500Y-5833000D01*
X14002000Y-5833000D01*
X14002000Y-6337000D01*
X13515500Y-6337000D01*
X13497809Y-6339514D01*
X13481519Y-6346857D01*
X13467920Y-6358448D01*
X13458088Y-6373368D01*
X13452802Y-6390437D01*
X13452000Y-6400500D01*
X13452000Y-6419500D01*
X13454514Y-6437191D01*
X13461857Y-6453481D01*
X13473448Y-6467080D01*
X13488368Y-6476912D01*
X13505437Y-6482198D01*
X13515500Y-6483000D01*
X14002000Y-6483000D01*
X14002000Y-6987000D01*
X13515500Y-6987000D01*
X13497809Y-6989514D01*
X13481519Y-6996857D01*
X13467920Y-7008448D01*
X13458088Y-7023368D01*
X13452802Y-7040437D01*
X13452000Y-7050500D01*
X13452000Y-7069500D01*
X13454514Y-7087191D01*
X13461857Y-7103481D01*
X13473448Y-7117080D01*
X13488368Y-7126912D01*
X13505437Y-7132198D01*
X13515500Y-7133000D01*
X14002000Y-7133000D01*
X14002000Y-7637000D01*
X13515500Y-7637000D01*
X13497809Y-7639514D01*
X13481519Y-7646857D01*
X13467920Y-7658448D01*
X13458088Y-7673368D01*
X13452802Y-7690437D01*
X13452000Y-7700500D01*
X13452000Y-7719500D01*
X13454514Y-7737191D01*
X13461857Y-7753481D01*
X13473448Y-7767080D01*
X13488368Y-7776912D01*
X13505437Y-7782198D01*
X13515500Y-7783000D01*
X14002000Y-7783000D01*
X14002000Y-8287000D01*
X13515500Y-8287000D01*
X13497809Y-8289514D01*
X13481519Y-8296857D01*
X13467920Y-8308448D01*
X13458088Y-8323368D01*
X13452802Y-8340437D01*
X13452000Y-8350500D01*
X13452000Y-8369500D01*
X13454514Y-8387191D01*
X13461857Y-8403481D01*
X13473448Y-8417080D01*
X13488368Y-8426912D01*
X13505437Y-8432198D01*
X13515500Y-8433000D01*
X14002000Y-8433000D01*
X14002000Y-8937000D01*
X13515500Y-8937000D01*
X13497809Y-8939514D01*
X13481519Y-8946857D01*
X13467920Y-8958448D01*
X13458088Y-8973368D01*
X13452802Y-8990437D01*
X13452000Y-9000500D01*
X13452000Y-9019500D01*
X13454514Y-9037191D01*
X13461857Y-9053481D01*
X13473448Y-9067080D01*
X13488368Y-9076912D01*
X13505437Y-9082198D01*
X13515500Y-9083000D01*
X14002000Y-9083000D01*
X14002000Y-9587000D01*
X13590500Y-9587000D01*
X13572809Y-9589514D01*
X13556519Y-9596857D01*
X13542920Y-9608448D01*
X13533088Y-9623368D01*
X13527802Y-9640437D01*
X13527000Y-9650500D01*
X13527000Y-10062000D01*
X13023000Y-10062000D01*
X13023000Y-9575500D01*
X13020486Y-9557809D01*
X13013143Y-9541519D01*
X13001552Y-9527920D01*
X12986632Y-9518088D01*
X12969563Y-9512802D01*
X12959500Y-9512000D01*
X12940500Y-9512000D01*
X12922809Y-9514514D01*
X12906519Y-9521857D01*
X12892920Y-9533448D01*
X12883088Y-9548368D01*
X12877802Y-9565437D01*
X12877000Y-9575500D01*
X12877000Y-10062000D01*
X12373000Y-10062000D01*
X12373000Y-9575500D01*
X12370486Y-9557809D01*
X12363143Y-9541519D01*
X12351552Y-9527920D01*
X12336632Y-9518088D01*
X12319563Y-9512802D01*
X12309500Y-9512000D01*
X12290500Y-9512000D01*
X12272809Y-9514514D01*
X12256519Y-9521857D01*
X12242920Y-9533448D01*
X12233088Y-9548368D01*
X12227802Y-9565437D01*
X12227000Y-9575500D01*
X12227000Y-10062000D01*
X11723000Y-10062000D01*
X11723000Y-9575500D01*
X11720486Y-9557809D01*
X11713143Y-9541519D01*
X11701552Y-9527920D01*
X11686632Y-9518088D01*
X11669563Y-9512802D01*
X11659500Y-9512000D01*
X11640500Y-9512000D01*
X11622809Y-9514514D01*
X11606519Y-9521857D01*
X11592920Y-9533448D01*
X11583088Y-9548368D01*
X11577802Y-9565437D01*
X11577000Y-9575500D01*
X11577000Y-10062000D01*
X11073000Y-10062000D01*
X11073000Y-9575500D01*
X11070486Y-9557809D01*
X11063143Y-9541519D01*
X11051552Y-9527920D01*
X11036632Y-9518088D01*
X11019563Y-9512802D01*
X11009500Y-9512000D01*
X10990500Y-9512000D01*
X10972809Y-9514514D01*
X10956519Y-9521857D01*
X10942920Y-9533448D01*
X10933088Y-9548368D01*
X10927802Y-9565437D01*
X10927000Y-9575500D01*
X10927000Y-10062000D01*
X10423000Y-10062000D01*
X10423000Y-9575500D01*
X10420486Y-9557809D01*
X10413143Y-9541519D01*
X10401552Y-9527920D01*
X10386632Y-9518088D01*
X10369563Y-9512802D01*
X10359500Y-9512000D01*
X10340500Y-9512000D01*
X10322809Y-9514514D01*
X10306519Y-9521857D01*
X10292920Y-9533448D01*
X10283088Y-9548368D01*
X10277802Y-9565437D01*
X10277000Y-9575500D01*
X10277000Y-10062000D01*
X9773000Y-10062000D01*
X9773000Y-9575500D01*
X9770486Y-9557809D01*
X9763143Y-9541519D01*
X9751552Y-9527920D01*
X9736632Y-9518088D01*
X9719563Y-9512802D01*
X9709500Y-9512000D01*
X9690500Y-9512000D01*
X9672809Y-9514514D01*
X9656519Y-9521857D01*
X9642920Y-9533448D01*
X9633088Y-9548368D01*
X9627802Y-9565437D01*
X9627000Y-9575500D01*
X9627000Y-10062000D01*
X9123000Y-10062000D01*
X9123000Y-9575500D01*
X9120486Y-9557809D01*
X9113143Y-9541519D01*
X9101552Y-9527920D01*
X9086632Y-9518088D01*
X9069563Y-9512802D01*
X9059500Y-9512000D01*
X9040500Y-9512000D01*
X9022809Y-9514514D01*
X9006519Y-9521857D01*
X8992920Y-9533448D01*
X8983088Y-9548368D01*
X8977802Y-9565437D01*
X8977000Y-9575500D01*
X8977000Y-10062000D01*
X8473000Y-10062000D01*
X8473000Y-9650500D01*
X8470486Y-9632809D01*
X8463143Y-9616519D01*
X8451552Y-9602920D01*
X8436632Y-9593088D01*
X8419563Y-9587802D01*
X8409500Y-9587000D01*
X7998000Y-9587000D01*
X7998000Y-9083000D01*
X8484500Y-9083000D01*
X8502191Y-9080486D01*
X8518481Y-9073143D01*
X8532080Y-9061552D01*
X8541912Y-9046632D01*
X8547198Y-9029563D01*
X8548000Y-9019500D01*
X8548000Y-9000500D01*
X8545486Y-8982809D01*
X8538143Y-8966519D01*
X8526552Y-8952920D01*
X8511632Y-8943088D01*
X8494563Y-8937802D01*
X8484500Y-8937000D01*
X7998000Y-8937000D01*
X7998000Y-8433000D01*
X8484500Y-8433000D01*
X8502191Y-8430486D01*
X8518481Y-8423143D01*
X8532080Y-8411552D01*
X8541912Y-8396632D01*
X8547198Y-8379563D01*
X8548000Y-8369500D01*
X8548000Y-8350500D01*
X8545486Y-8332809D01*
X8538143Y-8316519D01*
X8526552Y-8302920D01*
X8511632Y-8293088D01*
X8494563Y-8287802D01*
X8484500Y-8287000D01*
X7998000Y-8287000D01*
X7998000Y-7783000D01*
X8484500Y-7783000D01*
X8502191Y-7780486D01*
X8518481Y-7773143D01*
X8532080Y-7761552D01*
X8541912Y-7746632D01*
X8547198Y-7729563D01*
X8548000Y-7719500D01*
X8548000Y-7700500D01*
X8545486Y-7682809D01*
X8538143Y-7666519D01*
X8526552Y-7652920D01*
X8511632Y-7643088D01*
X8494563Y-7637802D01*
X8484500Y-7637000D01*
X7998000Y-7637000D01*
X7998000Y-7133000D01*
X8484500Y-7133000D01*
X8502191Y-7130486D01*
X8518481Y-7123143D01*
X8532080Y-7111552D01*
X8541912Y-7096632D01*
X8547198Y-7079563D01*
X8548000Y-7069500D01*
X8548000Y-7050500D01*
X8545486Y-7032809D01*
X8538143Y-7016519D01*
X8526552Y-7002920D01*
X8511632Y-6993088D01*
X8494563Y-6987802D01*
X8484500Y-6987000D01*
X7998000Y-6987000D01*
X7998000Y-6483000D01*
X8484500Y-6483000D01*
X8502191Y-6480486D01*
X8518481Y-6473143D01*
X8532080Y-6461552D01*
X8541912Y-6446632D01*
X8547198Y-6429563D01*
X8548000Y-6419500D01*
X8548000Y-6400500D01*
X8545486Y-6382809D01*
X8538143Y-6366519D01*
X8526552Y-6352920D01*
X8511632Y-6343088D01*
X8494563Y-6337802D01*
X8484500Y-6337000D01*
X7998000Y-6337000D01*
X7998000Y-5833000D01*
X8484500Y-5833000D01*
X8502191Y-5830486D01*
X8518481Y-5823143D01*
X8532080Y-5811552D01*
X8541912Y-5796632D01*
X8547198Y-5779563D01*
X8548000Y-5769500D01*
X8548000Y-5750500D01*
X8545486Y-5732809D01*
X8538143Y-5716519D01*
X8526552Y-5702920D01*
X8511632Y-5693088D01*
X8494563Y-5687802D01*
X8484500Y-5687000D01*
X7998000Y-5687000D01*
X7998000Y-5183000D01*
X8484500Y-5183000D01*
X8502191Y-5180486D01*
X8518481Y-5173143D01*
X8532080Y-5161552D01*
X8541912Y-5146632D01*
X8547198Y-5129563D01*
X8548000Y-5119500D01*
X8548000Y-5100500D01*
X8545486Y-5082809D01*
X8538143Y-5066519D01*
X8526552Y-5052920D01*
X8511632Y-5043088D01*
X8494563Y-5037802D01*
X8484500Y-5037000D01*
X7998000Y-5037000D01*
X7998000Y-4533000D01*
X8409500Y-4533000D01*
X8427191Y-4530486D01*
X8443481Y-4523143D01*
X8457080Y-4511552D01*
X8466912Y-4496632D01*
X8472198Y-4479563D01*
X8473000Y-4469500D01*
X8473000Y-4058000D01*
X8977000Y-4058000D01*
X8977000Y-4544500D01*
X8977000Y-4544500D01*
G37*
G36*
X14777000Y-3810000D02*
X13223000Y-3810000D01*
X13223000Y-2856000D01*
X14777000Y-2856000D01*
X14777000Y-3810000D01*
X14777000Y-3810000D01*
G37*
G36*
X12827000Y-3810000D02*
X11273000Y-3810000D01*
X11273000Y-2856000D01*
X12827000Y-2856000D01*
X12827000Y-3810000D01*
X12827000Y-3810000D01*
G37*
G36*
X10877000Y-3810000D02*
X9323000Y-3810000D01*
X9323000Y-2856000D01*
X10877000Y-2856000D01*
X10877000Y-3810000D01*
X10877000Y-3810000D01*
G37*
G36*
X20144631Y-623914D02*
X20409163Y-678214D01*
X20658102Y-782859D01*
X20881982Y-933868D01*
X21072266Y-1125486D01*
X21221702Y-1350404D01*
X21324609Y-1600076D01*
X21376975Y-1864540D01*
X21376975Y-1864553D01*
X21377059Y-1864978D01*
X21372752Y-2173419D01*
X21372655Y-2173845D01*
X21372655Y-2173857D01*
X21312927Y-2436753D01*
X21203090Y-2683450D01*
X21047429Y-2904115D01*
X20851870Y-3090343D01*
X20623865Y-3235039D01*
X20372092Y-3332696D01*
X20106154Y-3379588D01*
X19836171Y-3373932D01*
X19572421Y-3315943D01*
X19324965Y-3207833D01*
X19103220Y-3053715D01*
X18915631Y-2859462D01*
X18769345Y-2632471D01*
X18669936Y-2381390D01*
X18621187Y-2115782D01*
X18624958Y-1845761D01*
X18681102Y-1581623D01*
X18787484Y-1333415D01*
X18940050Y-1110598D01*
X19132990Y-921657D01*
X19358954Y-773790D01*
X19609335Y-672630D01*
X19874596Y-622028D01*
X20144631Y-623914D01*
X20144631Y-623914D01*
G37*
G36*
X2144631Y-623914D02*
X2409163Y-678214D01*
X2658102Y-782859D01*
X2881982Y-933868D01*
X3072266Y-1125486D01*
X3221702Y-1350404D01*
X3324609Y-1600076D01*
X3376975Y-1864540D01*
X3376975Y-1864553D01*
X3377059Y-1864978D01*
X3372752Y-2173419D01*
X3372655Y-2173845D01*
X3372655Y-2173857D01*
X3312927Y-2436753D01*
X3203090Y-2683450D01*
X3047429Y-2904115D01*
X2851870Y-3090343D01*
X2623865Y-3235039D01*
X2372092Y-3332696D01*
X2106154Y-3379588D01*
X1836171Y-3373932D01*
X1572421Y-3315943D01*
X1324965Y-3207833D01*
X1103220Y-3053715D01*
X915631Y-2859462D01*
X769345Y-2632471D01*
X669936Y-2381390D01*
X621187Y-2115782D01*
X624958Y-1845761D01*
X681102Y-1581623D01*
X787484Y-1333415D01*
X940050Y-1110598D01*
X1132990Y-921657D01*
X1358954Y-773790D01*
X1609335Y-672630D01*
X1874596Y-622028D01*
X2144631Y-623914D01*
X2144631Y-623914D01*
G37*
G36*
X14777000Y-1910000D02*
X13223000Y-1910000D01*
X13223000Y-956000D01*
X14777000Y-956000D01*
X14777000Y-1910000D01*
X14777000Y-1910000D01*
G37*
G36*
X12827000Y-1910000D02*
X11273000Y-1910000D01*
X11273000Y-956000D01*
X12827000Y-956000D01*
X12827000Y-1910000D01*
X12827000Y-1910000D01*
G37*
G36*
X10877000Y-1910000D02*
X9323000Y-1910000D01*
X9323000Y-956000D01*
X10877000Y-956000D01*
X10877000Y-1910000D01*
X10877000Y-1910000D01*
G37*
M02*
