G04 #@! TF.FileFunction,Legend,Top*
%FSLAX46Y46*%
G04 Gerber Fmt 4.6, Leading zero omitted, Abs format (unit mm)*
G04 Created by KiCad (PCBNEW 4.0.7) date Wednesday, June 13, 2018 'PMt' 01:49:24 PM*
%MOMM*%
%LPD*%
G01*
G04 APERTURE LIST*
%ADD10C,0.100000*%
%ADD11C,0.150000*%
%ADD12C,0.120000*%
%ADD13C,0.125000*%
G04 APERTURE END LIST*
D10*
D11*
X13871000Y-3804000D02*
X13871000Y-9646000D01*
X13871000Y-9646000D02*
X8029000Y-9646000D01*
X8029000Y-9646000D02*
X8029000Y-3804000D01*
X8029000Y-3804000D02*
X13871000Y-3804000D01*
D12*
X14175000Y-18475000D02*
X13175000Y-18475000D01*
X13175000Y-20175000D02*
X14175000Y-20175000D01*
X14025000Y-18250000D02*
X13325000Y-18250000D01*
X13325000Y-17050000D02*
X14025000Y-17050000D01*
X10980000Y-1275000D02*
X10980000Y-2475000D01*
X9220000Y-2475000D02*
X9220000Y-1275000D01*
X12930000Y-1275000D02*
X12930000Y-2475000D01*
X11170000Y-2475000D02*
X11170000Y-1275000D01*
X14880000Y-1275000D02*
X14880000Y-2475000D01*
X13120000Y-2475000D02*
X13120000Y-1275000D01*
D13*
X10461906Y-10351190D02*
X10461906Y-9851190D01*
X10985715Y-10303571D02*
X10961905Y-10327381D01*
X10890477Y-10351190D01*
X10842858Y-10351190D01*
X10771429Y-10327381D01*
X10723810Y-10279762D01*
X10700001Y-10232143D01*
X10676191Y-10136905D01*
X10676191Y-10065476D01*
X10700001Y-9970238D01*
X10723810Y-9922619D01*
X10771429Y-9875000D01*
X10842858Y-9851190D01*
X10890477Y-9851190D01*
X10961905Y-9875000D01*
X10985715Y-9898810D01*
X11461905Y-10351190D02*
X11176191Y-10351190D01*
X11319048Y-10351190D02*
X11319048Y-9851190D01*
X11271429Y-9922619D01*
X11223810Y-9970238D01*
X11176191Y-9994048D01*
D10*
X13658334Y-19342857D02*
X13639286Y-19361905D01*
X13582143Y-19380952D01*
X13544048Y-19380952D01*
X13486905Y-19361905D01*
X13448810Y-19323810D01*
X13429762Y-19285714D01*
X13410714Y-19209524D01*
X13410714Y-19152381D01*
X13429762Y-19076190D01*
X13448810Y-19038095D01*
X13486905Y-19000000D01*
X13544048Y-18980952D01*
X13582143Y-18980952D01*
X13639286Y-19000000D01*
X13658334Y-19019048D01*
X14039286Y-19380952D02*
X13810714Y-19380952D01*
X13925000Y-19380952D02*
X13925000Y-18980952D01*
X13886905Y-19038095D01*
X13848810Y-19076190D01*
X13810714Y-19095238D01*
X13608334Y-17767857D02*
X13589286Y-17786905D01*
X13532143Y-17805952D01*
X13494048Y-17805952D01*
X13436905Y-17786905D01*
X13398810Y-17748810D01*
X13379762Y-17710714D01*
X13360714Y-17634524D01*
X13360714Y-17577381D01*
X13379762Y-17501190D01*
X13398810Y-17463095D01*
X13436905Y-17425000D01*
X13494048Y-17405952D01*
X13532143Y-17405952D01*
X13589286Y-17425000D01*
X13608334Y-17444048D01*
X13760714Y-17444048D02*
X13779762Y-17425000D01*
X13817857Y-17405952D01*
X13913095Y-17405952D01*
X13951191Y-17425000D01*
X13970238Y-17444048D01*
X13989286Y-17482143D01*
X13989286Y-17520238D01*
X13970238Y-17577381D01*
X13741667Y-17805952D01*
X13989286Y-17805952D01*
X10205952Y-1891666D02*
X10015476Y-2025000D01*
X10205952Y-2120238D02*
X9805952Y-2120238D01*
X9805952Y-1967857D01*
X9825000Y-1929762D01*
X9844048Y-1910714D01*
X9882143Y-1891666D01*
X9939286Y-1891666D01*
X9977381Y-1910714D01*
X9996429Y-1929762D01*
X10015476Y-1967857D01*
X10015476Y-2120238D01*
X10205952Y-1510714D02*
X10205952Y-1739286D01*
X10205952Y-1625000D02*
X9805952Y-1625000D01*
X9863095Y-1663095D01*
X9901190Y-1701190D01*
X9920238Y-1739286D01*
X12230952Y-1891666D02*
X12040476Y-2025000D01*
X12230952Y-2120238D02*
X11830952Y-2120238D01*
X11830952Y-1967857D01*
X11850000Y-1929762D01*
X11869048Y-1910714D01*
X11907143Y-1891666D01*
X11964286Y-1891666D01*
X12002381Y-1910714D01*
X12021429Y-1929762D01*
X12040476Y-1967857D01*
X12040476Y-2120238D01*
X11869048Y-1739286D02*
X11850000Y-1720238D01*
X11830952Y-1682143D01*
X11830952Y-1586905D01*
X11850000Y-1548809D01*
X11869048Y-1529762D01*
X11907143Y-1510714D01*
X11945238Y-1510714D01*
X12002381Y-1529762D01*
X12230952Y-1758333D01*
X12230952Y-1510714D01*
X14155952Y-1941666D02*
X13965476Y-2075000D01*
X14155952Y-2170238D02*
X13755952Y-2170238D01*
X13755952Y-2017857D01*
X13775000Y-1979762D01*
X13794048Y-1960714D01*
X13832143Y-1941666D01*
X13889286Y-1941666D01*
X13927381Y-1960714D01*
X13946429Y-1979762D01*
X13965476Y-2017857D01*
X13965476Y-2170238D01*
X13755952Y-1808333D02*
X13755952Y-1560714D01*
X13908333Y-1694047D01*
X13908333Y-1636905D01*
X13927381Y-1598809D01*
X13946429Y-1579762D01*
X13984524Y-1560714D01*
X14079762Y-1560714D01*
X14117857Y-1579762D01*
X14136905Y-1598809D01*
X14155952Y-1636905D01*
X14155952Y-1751190D01*
X14136905Y-1789286D01*
X14117857Y-1808333D01*
D11*
M02*
