G04 #@! TF.FileFunction,Legend,Top*
%FSLAX46Y46*%
G04 Gerber Fmt 4.6, Leading zero omitted, Abs format (unit mm)*
G04 Created by KiCad (PCBNEW 4.0.7) date Thursday, June 14, 2018 'PMt' 12:28:10 PM*
%MOMM*%
%LPD*%
G01*
G04 APERTURE LIST*
%ADD10C,0.100000*%
%ADD11C,0.150000*%
%ADD12C,0.120000*%
%ADD13C,0.125000*%
G04 APERTURE END LIST*
D10*
D11*
X13921000Y-4139000D02*
X13921000Y-9981000D01*
X13921000Y-9981000D02*
X8079000Y-9981000D01*
X8079000Y-9981000D02*
X8079000Y-4139000D01*
X8079000Y-4139000D02*
X13921000Y-4139000D01*
D12*
X14175000Y-18475000D02*
X13175000Y-18475000D01*
X13175000Y-20175000D02*
X14175000Y-20175000D01*
X14025000Y-18250000D02*
X13325000Y-18250000D01*
X13325000Y-17050000D02*
X14025000Y-17050000D01*
X10980000Y-1783000D02*
X10980000Y-2983000D01*
X9220000Y-2983000D02*
X9220000Y-1783000D01*
X12930000Y-1783000D02*
X12930000Y-2983000D01*
X11170000Y-2983000D02*
X11170000Y-1783000D01*
X14880000Y-1783000D02*
X14880000Y-2983000D01*
X13120000Y-2983000D02*
X13120000Y-1783000D01*
D13*
X10511906Y-10686190D02*
X10511906Y-10186190D01*
X11035715Y-10638571D02*
X11011905Y-10662381D01*
X10940477Y-10686190D01*
X10892858Y-10686190D01*
X10821429Y-10662381D01*
X10773810Y-10614762D01*
X10750001Y-10567143D01*
X10726191Y-10471905D01*
X10726191Y-10400476D01*
X10750001Y-10305238D01*
X10773810Y-10257619D01*
X10821429Y-10210000D01*
X10892858Y-10186190D01*
X10940477Y-10186190D01*
X11011905Y-10210000D01*
X11035715Y-10233810D01*
X11511905Y-10686190D02*
X11226191Y-10686190D01*
X11369048Y-10686190D02*
X11369048Y-10186190D01*
X11321429Y-10257619D01*
X11273810Y-10305238D01*
X11226191Y-10329048D01*
D10*
X13658334Y-19342857D02*
X13639286Y-19361905D01*
X13582143Y-19380952D01*
X13544048Y-19380952D01*
X13486905Y-19361905D01*
X13448810Y-19323810D01*
X13429762Y-19285714D01*
X13410714Y-19209524D01*
X13410714Y-19152381D01*
X13429762Y-19076190D01*
X13448810Y-19038095D01*
X13486905Y-19000000D01*
X13544048Y-18980952D01*
X13582143Y-18980952D01*
X13639286Y-19000000D01*
X13658334Y-19019048D01*
X14039286Y-19380952D02*
X13810714Y-19380952D01*
X13925000Y-19380952D02*
X13925000Y-18980952D01*
X13886905Y-19038095D01*
X13848810Y-19076190D01*
X13810714Y-19095238D01*
X13608334Y-17767857D02*
X13589286Y-17786905D01*
X13532143Y-17805952D01*
X13494048Y-17805952D01*
X13436905Y-17786905D01*
X13398810Y-17748810D01*
X13379762Y-17710714D01*
X13360714Y-17634524D01*
X13360714Y-17577381D01*
X13379762Y-17501190D01*
X13398810Y-17463095D01*
X13436905Y-17425000D01*
X13494048Y-17405952D01*
X13532143Y-17405952D01*
X13589286Y-17425000D01*
X13608334Y-17444048D01*
X13760714Y-17444048D02*
X13779762Y-17425000D01*
X13817857Y-17405952D01*
X13913095Y-17405952D01*
X13951191Y-17425000D01*
X13970238Y-17444048D01*
X13989286Y-17482143D01*
X13989286Y-17520238D01*
X13970238Y-17577381D01*
X13741667Y-17805952D01*
X13989286Y-17805952D01*
X10205952Y-2399666D02*
X10015476Y-2533000D01*
X10205952Y-2628238D02*
X9805952Y-2628238D01*
X9805952Y-2475857D01*
X9825000Y-2437762D01*
X9844048Y-2418714D01*
X9882143Y-2399666D01*
X9939286Y-2399666D01*
X9977381Y-2418714D01*
X9996429Y-2437762D01*
X10015476Y-2475857D01*
X10015476Y-2628238D01*
X10205952Y-2018714D02*
X10205952Y-2247286D01*
X10205952Y-2133000D02*
X9805952Y-2133000D01*
X9863095Y-2171095D01*
X9901190Y-2209190D01*
X9920238Y-2247286D01*
X12230952Y-2399666D02*
X12040476Y-2533000D01*
X12230952Y-2628238D02*
X11830952Y-2628238D01*
X11830952Y-2475857D01*
X11850000Y-2437762D01*
X11869048Y-2418714D01*
X11907143Y-2399666D01*
X11964286Y-2399666D01*
X12002381Y-2418714D01*
X12021429Y-2437762D01*
X12040476Y-2475857D01*
X12040476Y-2628238D01*
X11869048Y-2247286D02*
X11850000Y-2228238D01*
X11830952Y-2190143D01*
X11830952Y-2094905D01*
X11850000Y-2056809D01*
X11869048Y-2037762D01*
X11907143Y-2018714D01*
X11945238Y-2018714D01*
X12002381Y-2037762D01*
X12230952Y-2266333D01*
X12230952Y-2018714D01*
X14155952Y-2449666D02*
X13965476Y-2583000D01*
X14155952Y-2678238D02*
X13755952Y-2678238D01*
X13755952Y-2525857D01*
X13775000Y-2487762D01*
X13794048Y-2468714D01*
X13832143Y-2449666D01*
X13889286Y-2449666D01*
X13927381Y-2468714D01*
X13946429Y-2487762D01*
X13965476Y-2525857D01*
X13965476Y-2678238D01*
X13755952Y-2316333D02*
X13755952Y-2068714D01*
X13908333Y-2202047D01*
X13908333Y-2144905D01*
X13927381Y-2106809D01*
X13946429Y-2087762D01*
X13984524Y-2068714D01*
X14079762Y-2068714D01*
X14117857Y-2087762D01*
X14136905Y-2106809D01*
X14155952Y-2144905D01*
X14155952Y-2259190D01*
X14136905Y-2297286D01*
X14117857Y-2316333D01*
D11*
M02*
