G04 #@! TF.FileFunction,Soldermask,Top*
%FSLAX46Y46*%
G04 Gerber Fmt 4.6, Leading zero omitted, Abs format (unit mm)*
G04 Created by KiCad (PCBNEW 4.0.7) date Wednesday, June 13, 2018 'PMt' 01:49:24 PM*
%MOMM*%
%LPD*%
G01*
G04 APERTURE LIST*
%ADD10C,0.100000*%
%ADD11R,0.650000X0.800000*%
%ADD12R,0.800000X0.650000*%
%ADD13R,5.050000X5.050000*%
%ADD14R,1.400000X1.650000*%
%ADD15R,1.200000X1.150000*%
%ADD16R,1.700000X1.100000*%
%ADD17R,2.100000X2.100000*%
%ADD18O,2.100000X2.100000*%
%ADD19C,2.900000*%
G04 APERTURE END LIST*
D10*
D11*
X8675000Y-4050000D03*
X9325000Y-4050000D03*
X9975000Y-4050000D03*
X10625000Y-4050000D03*
X11275000Y-4050000D03*
X11925000Y-4050000D03*
X12575000Y-4050000D03*
X13225000Y-4050000D03*
D12*
X13625000Y-4450000D03*
X13625000Y-5100000D03*
X13625000Y-5750000D03*
X13625000Y-6400000D03*
X13625000Y-7050000D03*
X13625000Y-7700000D03*
X13625000Y-8350000D03*
X13625000Y-9000000D03*
D11*
X13225000Y-9400000D03*
X12575000Y-9400000D03*
X11925000Y-9400000D03*
X11275000Y-9400000D03*
X10625000Y-9400000D03*
X9975000Y-9400000D03*
X9325000Y-9400000D03*
X8675000Y-9400000D03*
D12*
X8275000Y-9000000D03*
X8275000Y-8350000D03*
X8275000Y-7700000D03*
X8275000Y-7050000D03*
X8275000Y-6400000D03*
X8275000Y-5750000D03*
X8275000Y-5100000D03*
X8275000Y-4450000D03*
D13*
X10950000Y-6725000D03*
D14*
X12675000Y-19325000D03*
X14675000Y-19325000D03*
D15*
X14425000Y-17650000D03*
X12925000Y-17650000D03*
D16*
X10100000Y-2825000D03*
X10100000Y-925000D03*
X12050000Y-2825000D03*
X12050000Y-925000D03*
X14000000Y-2825000D03*
X14000000Y-925000D03*
D17*
X14810000Y-22020000D03*
D18*
X12270000Y-22020000D03*
X9730000Y-22020000D03*
D17*
X14810000Y-24560000D03*
D18*
X12270000Y-24560000D03*
X9730000Y-24560000D03*
X7190000Y-24560000D03*
D17*
X14810000Y-27100000D03*
D18*
X12270000Y-27100000D03*
X9730000Y-27100000D03*
X7190000Y-27100000D03*
D19*
X2000000Y-2000000D03*
X20000000Y-2000000D03*
X2000000Y-13000000D03*
X20000000Y-13000000D03*
M02*
